<?xml version="1.0" encoding="utf-8"?>
<svg viewBox="0 0 500 500" xmlns="http://www.w3.org/2000/svg">
  <defs>
    <linearGradient id="acc8b6a5-9f39-4130-a42e-d6ce30e2b206-391" x1="654.16" y1="770.88" x2="654.16" y2="513.71" gradientUnits="userSpaceOnUse" gradientTransform="matrix(0.489745, 0, 0, 0.527514, -43.661907, -6.125627)">
      <stop offset="0" stop-color="gray" stop-opacity="0.25"/>
      <stop offset="0.54" stop-color="gray" stop-opacity="0.12"/>
      <stop offset="1" stop-color="gray" stop-opacity="0.1"/>
    </linearGradient>
  </defs>
  <path d="M 42.758 193.397 C 52.964 218.229 39.941 246.83 24.638 268.388 C 19.506 275.603 13.863 283.159 13.144 292.242 C 12.286 303.322 19.25 313.506 27.518 320.163 C 42.587 332.297 63.175 336.047 81.111 329.929 C 96.611 324.653 109.643 312.695 125.276 307.873 C 151.437 299.807 179.147 313.179 201.533 329.832 C 217.378 341.618 234.346 355.946 253.446 353.43 C 266.895 351.657 278.305 341.493 286.044 329.518 C 289.78 323.714 293.032 317.262 298.478 313.359 C 301.716 311.04 305.516 309.81 309.322 308.933 C 344.044 300.943 380.888 320.447 415.151 310.415 C 438.29 303.638 456.744 283.933 468.214 261.256 C 479.683 238.579 485.043 212.962 489.501 187.583 C 492.67 169.548 495.302 150.088 488.034 133.492 C 480.325 115.938 462.483 105.298 444.554 103.308 C 426.624 101.319 408.638 106.832 392.117 114.608 C 371.473 124.33 351.244 137.94 328.71 137.987 C 313.366 138.019 298.737 131.656 284.065 126.842 C 259.489 118.755 234.021 114.735 208.59 111.026 C 184.255 107.475 159.685 104.169 135.203 106.278 C 117.88 107.761 102.586 114.893 85.778 118.19 C 74.823 120.342 63.812 118.717 53.063 122.363 C 39.839 126.818 26.205 137.165 25.475 153.438 C 24.785 168.91 37.342 180.215 42.758 193.397 Z" opacity="0.1" style="fill: rgb(236, 104, 28);"/>
  <g opacity="0.5" transform="matrix(0.489744, 0, 0, 0.527514, 7.68284, 39.493809)" style="">
    <path d="M802.73,269.64c-5,1.44-11.21,5.16-14.25,15.37-6,20,7.88,33.68,3.33,54.45a40.61,40.61,0,0,1-7,15.27c-5.57,7.55-11.63,11.13-17.49,16.42a52.18,52.18,0,0,0-15.37,25.24,69.86,69.86,0,0,0-.69,32.81c2.09,9.06,5.65,15.65,8.75,23a169.86,169.86,0,0,1,9,29,70.52,70.52,0,0,1,2,14.71c.1,6.23-.87,13-1.82,19.68l-8.47,59.11c-1.13,7.87-2.27,15.87-2.31,23.36-.06,8.65,1.33,16.08,2.71,23.33,3,15.64,6.17,31.87,13,40.12s18.41,5.39,25.54-11.45c6.78-16,6.92-37.4,12.9-54.52,9.42-27,28.16-30.6,38.55-56.33,10-24.68,6.92-55,12-83.12,3.62-20.17,11.33-38.57,15.9-58.5,6.57-28.71,5.92-58.51.67-80.57s-14.67-37.21-25.07-48.7c-4.41-4.87-9.12-9.2-14.66-9.63-5.89-.45-11,7-16.85,9.19C816.32,270.41,809.56,267.7,802.73,269.64Z" transform="translate(-104.84 -86.48)" style="fill: rgb(247, 107, 28);"/>
    <path d="M834.62,260.09s-10,255.28-51.93,405.82" transform="translate(-104.84 -86.48)" stroke="#535461" stroke-miterlimit="10" stroke-width="2" style="fill: rgb(247, 107, 28);"/>
    <path d="M788.22,286.26S833,327.07,824.55,404.83" transform="translate(-104.84 -86.48)" stroke="#535461" stroke-miterlimit="10" stroke-width="2" style="fill: rgb(247, 107, 28);"/>
    <path d="M750.6,402.38s73.6,14.8,68.14,58.82" transform="translate(-104.84 -86.48)" stroke="#535461" stroke-miterlimit="10" stroke-width="2" style="fill: rgb(247, 107, 28);"/>
    <path d="M879.77,316.41S850,342.48,823.46,416.32" transform="translate(-104.84 -86.48)" stroke="#535461" stroke-miterlimit="10" stroke-width="2" style="fill: rgb(247, 107, 28);"/>
    <path d="M850.66,539.58s-20.32,16-36.63-39.81" transform="translate(-104.84 -86.48)" stroke="#535461" stroke-miterlimit="10" stroke-width="2" style="fill: rgb(247, 107, 28);"/>
    <path d="M763,572.13s41.44-5.41,45.26-31.37" transform="translate(-104.84 -86.48)" stroke="#535461" stroke-miterlimit="10" stroke-width="2" style="fill: rgb(247, 107, 28);"/>
  </g>
  <path d="M 398.528 45.793 C 393.503 46.595 387.46 49.102 384.978 56.841 C 380.103 72.01 394.923 83.494 391.51 99.348 C 390.487 104.093 387.964 107.956 385.305 110.774 C 380.094 116.293 374.163 118.686 368.532 122.433 C 362.899 126.176 357.051 132.054 354.413 141.078 C 351.87 149.76 352.974 159.357 355.613 166.525 C 358.253 173.695 362.248 179.038 365.818 184.935 C 370.164 192.198 373.8 199.923 376.664 207.993 C 377.945 211.545 379.114 215.289 379.531 219.541 C 379.99 224.388 379.408 229.607 378.829 234.71 L 373.679 280.078 C 372.991 286.117 372.302 292.263 372.698 298.082 C 373.145 304.798 374.986 310.654 376.803 316.37 C 380.721 328.705 384.913 341.518 392.293 348.348 C 399.675 355.181 411.272 353.689 417.51 341.047 C 423.452 329.014 422.358 312.426 427.423 299.5 C 435.406 279.133 454.188 277.489 463.224 258.155 C 471.897 239.607 467.042 215.88 470.526 194.326 C 473.023 178.88 479.776 165.074 483.258 149.877 C 488.253 127.981 485.869 104.796 479.257 87.33 C 472.646 69.864 462.223 57.504 451.018 47.929 C 446.269 43.875 441.224 40.205 435.601 39.532 C 429.605 38.815 424.826 44.247 419.053 45.614 C 412.344 47.234 405.341 44.707 398.528 45.793 Z" style="fill: rgb(247, 107, 28);"/>
  <path d="M 430.292 40.36 C 430.292 40.36 435.02 238.052 401.22 352.369" fill="none" stroke="#535461" stroke-miterlimit="10" stroke-width="2" style="fill-opacity: 0.5;"/>
  <path d="M 384.781 57.789 C 384.781 57.789 432.589 92.298 428.494 152.172" fill="none" stroke="#535461" stroke-miterlimit="10" stroke-width="2" style="fill-opacity: 0.5;"/>
  <path d="M 353.397 145.647 C 353.397 145.647 428.857 161.746 425.88 195.598" fill="none" stroke="#535461" stroke-miterlimit="10" stroke-width="2" style="fill-opacity: 0.5;"/>
  <path d="M 479.327 86.938 C 479.327 86.938 450.648 105.329 428.053 161.029" fill="none" stroke="#535461" stroke-miterlimit="10" stroke-width="2" style="fill-opacity: 0.5;"/>
  <path d="M 462.783 258.482 C 462.783 258.482 443.115 269.633 423.344 225.249" fill="none" stroke="#535461" stroke-miterlimit="10" stroke-width="2" style="fill-opacity: 0.5;"/>
  <path d="M 375.789 278.289 C 375.789 278.289 417.482 276.675 419.866 256.757" fill="none" stroke="#535461" stroke-miterlimit="10" stroke-width="2" style=""/>
  <ellipse cx="246.78" cy="347.937" rx="209.449" ry="21.672" opacity="0.1" style="fill: rgb(247, 107, 28);"/>
  <path d="M 40.618 322.142 C 40.618 322.142 44.722 327.943 38.722 336.651 C 32.724 345.353 27.778 352.748 29.8 358.186 C 29.8 358.186 38.85 341.975 46.215 341.748 C 53.582 341.523 48.724 331.89 40.618 322.142 Z" style="fill: rgb(247, 107, 28);"/>
  <path d="M 40.618 322.142 C 40.977 322.702 41.257 323.311 41.455 323.958 C 48.646 333.05 52.471 341.539 45.566 341.755 C 39.13 341.957 31.411 354.347 29.559 357.481 C 29.621 357.722 29.693 357.96 29.781 358.19 C 29.781 358.19 38.831 341.984 46.196 341.755 C 53.563 341.528 48.724 331.89 40.618 322.142 Z" opacity="0.1" style=""/>
  <path d="M 48.249 329.511 C 48.249 331.549 48.037 333.204 47.759 333.204 C 47.48 333.204 47.269 331.554 47.269 329.511 C 47.269 327.47 47.533 328.457 47.793 328.457 C 48.053 328.457 48.249 327.476 48.249 329.511 Z" fill="#ffd037" style=""/>
  <path d="M 50.858 331.938 C 49.198 332.914 47.755 333.521 47.631 333.252 C 47.509 332.984 48.748 332.011 50.407 331.041 C 52.069 330.071 51.412 330.778 51.541 331.041 C 51.667 331.306 52.525 330.957 50.858 331.938 Z" fill="#ffd037" style=""/>
  <path d="M 18.937 322.142 C 18.937 322.142 14.833 327.943 20.833 336.651 C 26.832 345.353 31.758 352.748 29.8 358.186 C 29.8 358.186 20.749 341.975 13.384 341.748 C 6.017 341.523 10.837 331.89 18.937 322.142 Z" style="fill: rgb(247, 107, 28);"/>
  <path d="M 18.937 322.142 C 18.579 322.702 18.298 323.311 18.1 323.958 C 10.91 333.05 7.084 341.539 13.989 341.755 C 20.425 341.957 28.144 354.347 29.995 357.481 C 29.935 357.722 29.861 357.96 29.775 358.19 C 29.775 358.19 20.725 341.984 13.359 341.755 C 5.993 341.528 10.837 331.89 18.937 322.142 Z" opacity="0.1" style=""/>
  <path d="M 11.311 329.511 C 11.311 331.549 11.523 333.204 11.801 333.204 C 12.081 333.204 12.29 331.554 12.29 329.511 C 12.29 327.47 12.027 328.457 11.767 328.457 C 11.507 328.457 11.311 327.476 11.311 329.511 Z" fill="#ffd037" style=""/>
  <path d="M 8.692 331.938 C 10.353 332.914 11.797 333.521 11.92 333.252 C 12.041 332.984 10.802 332.011 9.143 331.041 C 7.482 330.071 8.138 330.778 8.011 331.041 C 7.883 331.306 7.031 330.957 8.692 331.938 Z" fill="#ffd037" style=""/>
  <path d="M 12.615 357.434 C 12.615 357.434 24.09 357.052 27.547 354.399 C 31.004 351.745 45.178 348.599 46.054 352.816 C 46.932 357.037 63.299 373.976 50.345 374.087 C 37.391 374.199 20.245 371.913 16.792 369.65 C 13.34 367.387 12.615 357.434 12.615 357.434 Z" style="fill: rgb(55, 55, 55);"/>
  <path d="M 50.58 372.631 C 37.627 372.743 20.481 370.458 17.028 368.194 C 14.398 366.467 13.349 360.282 13.002 357.426 L 12.619 357.426 C 12.619 357.426 13.344 367.399 16.798 369.662 C 20.25 371.924 37.395 374.214 50.368 374.104 C 54.111 374.072 55.398 372.636 55.33 370.515 C 54.777 371.797 53.362 372.599 50.58 372.631 Z" opacity="0.2" style=""/>
  <path d="M 161.967 277.377 C 161.967 277.377 219.389 237.862 259.088 237.862 C 259.088 237.862 306.882 229.843 358.87 243.393 C 410.854 256.946 430.057 274.519 444.473 269.358 L 383.919 271.269 L 161.967 277.377 Z" style="fill: rgb(243, 202, 140);"/>
  <path d="M 151.5 278.916 C 151.5 278.916 208.924 239.401 248.622 239.401 C 248.622 239.401 296.416 231.382 348.404 244.932 C 400.389 258.485 419.592 276.055 434.005 270.898 L 373.453 272.808 L 151.5 278.916 Z" opacity="0.1" style="fill: rgb(243, 202, 140);"/>
  <polygon points="432.624 337.857 82.419 337.857 92.046 296.305 151.6 279.25 432.624 287.204 432.624 337.857" style="fill: rgb(13, 12, 0);"/>
  <path d="M 451.057 311.892 L 451.057 325.155 C 451.057 325.155 440.66 333.278 439.715 339.639 C 439.715 339.639 424.826 343.714 420.576 343.714 C 420.189 343.714 419.766 343.714 419.327 343.76 C 419.992 341.841 420.512 339.867 420.879 337.857 C 426.306 308.505 400.2 283.831 373.889 293.445 C 356.727 299.713 346.543 318.715 350.082 337.857 C 350.584 340.574 351.353 343.227 352.379 345.77 L 332.193 345.77 C 332.193 345.77 332.006 345.839 331.702 345.979 C 330.62 346.509 328.068 347.902 327.702 350.089 L 160.399 350.089 L 156.971 350.06 C 157.7 348.74 158.354 347.378 158.931 345.976 C 160.007 343.377 160.804 340.658 161.311 337.867 C 166.795 308.503 140.716 283.754 114.363 293.317 C 99.66 298.655 89.764 313.506 89.774 330.219 C 89.774 332.78 90.007 335.337 90.468 337.853 C 91.259 342.108 92.706 346.191 94.749 349.932 C 92.359 349.303 87.144 347.521 87.144 347.521 C 87.144 347.521 64.934 344.98 59.263 339.61 L 60.121 338.969 L 63.752 336.297 L 62.099 329.437 C 61.898 329.147 61.734 328.835 61.607 328.498 C 61.168 327.354 60.781 325.229 62.338 322.559 C 64.699 318.486 63.517 303.98 63.517 303.98 C 63.517 303.98 95.656 280.056 158.984 274.707 C 158.984 274.707 160.498 275.974 163.623 276.238 C 165.737 276.424 168.592 276.143 172.222 274.707 C 172.222 274.707 177.418 277.252 199.648 263.509 C 199.648 263.509 237.46 235.508 287.087 238.063 C 287.087 238.063 338.128 234.749 381.608 252.832 C 400.344 260.618 414.601 264.77 424.764 266.963 C 434.147 268.996 440.039 269.368 442.737 269.402 L 442.796 269.402 C 443.677 269.402 444.202 269.402 444.387 269.402 L 444.467 269.402 C 444.467 269.402 444.467 275.463 444.765 282.62 L 444.765 282.658 C 444.874 285.147 445.02 287.77 445.225 290.318 L 445.225 290.476 C 445.794 297.571 446.773 304.018 448.473 305.292 L 451.057 311.892 Z" style="stroke-width: 32px; fill: rgb(202, 138, 4);"/>
  <path d="M 68.627 303.4 C 68.627 303.4 82.864 291.435 100.587 293.984 C 100.587 293.984 84.461 307.732 77.193 306.84 L 75.954 305.692 L 68.607 306.138 C 68.607 306.138 67.509 304.292 68.627 303.4 Z" style="fill: rgb(243, 202, 140);"/>
  <path d="M 82.447 324.099 L 82.447 331.163 C 82.447 331.163 81.957 337.908 76.301 338.163 L 60.139 339.021 L 63.769 336.349 L 62.114 329.49 C 61.913 329.203 61.747 328.892 61.622 328.557 C 63.093 327.101 66.555 324.641 73.596 324.115 L 82.447 324.099 Z" fill="#fff" opacity="0.2" style=""/>
  <path d="M 157.652 294.496 L 170.057 293.968 C 170.057 293.968 165.038 298.229 161.492 298.615 C 157.947 299 157.652 294.496 157.652 294.496 Z" fill="#fff" opacity="0.2" style=""/>
  <path d="M 183.766 335.03 C 183.766 335.03 295.95 318.226 323.067 323.574 C 323.067 323.574 331.041 324.148 334.059 327.58 C 337.075 331.014 334.059 328.789 334.059 328.789 L 183.766 335.03 Z" fill="#fff" opacity="0.2" style=""/>
  <path d="M 246.566 287.876 C 246.566 287.876 247.985 285.01 250.287 284.947 L 265.234 284.118 C 265.234 284.118 265 286.346 262.34 287.174 L 246.566 287.876 Z" fill="#18218a" opacity="0.5" style=""/>
  <path d="M 333.054 283.039 C 333.054 283.039 334.476 280.173 336.776 280.111 L 351.723 279.26 C 351.723 279.26 351.488 281.488 348.831 282.315 L 333.054 283.039 Z" fill="#18218a" opacity="0.5" style=""/>
  <path d="M 282.018 243.792 L 270.547 276.191 L 229.193 276.238 L 218.548 276.238 L 209.286 276.238 L 201.278 276.238 L 192.209 276.238 C 192.209 276.238 197.734 271.871 206.632 266.306 C 209.57 264.46 212.905 262.485 216.524 260.503 C 219.855 258.667 223.441 256.811 227.205 255.049 C 230.145 253.654 233.238 252.315 236.403 251.065 C 250.748 245.415 266.87 241.622 282.018 243.792 Z" style="fill: rgb(243, 202, 140);"/>
  <path d="M 346.996 267.45 C 346.996 267.45 329.718 270.209 313.229 272.249 C 306.926 273.03 300.741 273.706 295.676 274.081 L 294.972 274.132 C 293.012 274.271 291.197 274.359 289.653 274.392 C 287.205 274.439 285.372 274.323 284.457 274.007 L 289.223 243.016 C 289.223 243.016 295.099 243.084 303.79 243.542 L 305.692 243.654 C 307.499 243.764 309.403 243.89 311.391 244.038 C 314.235 244.251 317.226 244.503 320.311 244.808 C 335.21 246.282 352.084 248.922 362.772 253.681 C 385.511 263.819 346.996 267.45 346.996 267.45 Z" style="fill: rgb(243, 202, 140);"/>
  <path d="M 426.629 283.039 L 426.629 291.308 C 426.629 291.308 414.223 291.499 416.883 288.83 C 418.605 287.059 420.166 285.115 421.551 283.026 L 426.629 283.039 Z" style="fill: rgb(243, 202, 140);"/>
  <path d="M 445.215 290.464 L 435.141 291.313 L 435.141 281.37 C 435.141 281.37 439.809 274.307 444.477 282.137 L 444.744 282.593 L 445.215 290.464 Z" style="fill: rgb(243, 202, 140);"/>
  <circle cx="390.716" cy="625.189" r="58.87" style="fill: rgb(55, 55, 55);" transform="matrix(0.489744, 0, 0, 0.527514, -65.448608, 0.42124)"/>
  <path d="M 132.52 306.226 L 132.52 307.135 L 125.903 330.731 L 120.594 305.837 C 124.533 304.85 128.643 304.983 132.52 306.226 Z" style="fill: rgb(202, 138, 4);"/>
  <path d="M 132.47 354.168 C 128.68 355.379 124.666 355.525 120.808 354.601 L 125.898 330.731 L 132.47 354.168 Z" style="fill: rgb(202, 138, 4);"/>
  <path d="M 149.028 330.193 C 149.031 332.795 148.658 335.383 147.921 337.862 L 147.828 337.862 L 125.922 330.737 L 148.576 325.133 C 148.886 326.799 149.036 328.493 149.028 330.193 Z" style="fill: rgb(202, 138, 4);"/>
  <path d="M 125.903 330.731 L 103.996 337.857 L 103.826 337.857 C 102.605 333.737 102.388 329.349 103.192 325.111 L 125.903 330.731 Z" style="fill: rgb(202, 138, 4);"/>
  <circle cx="390.646" cy="625.129" r="5.19" style="" transform="matrix(0.489744, 0, 0, 0.527514, -65.448608, 0.42124)"/>
  <circle cx="920.386" cy="625.189" r="58.87" style="fill: rgb(71, 66, 58);" transform="matrix(0.489744, 0, 0, 0.527514, -65.448608, 0.42124)"/>
  <path d="M 408.438 330.193 C 408.467 349.431 389.15 361.494 373.665 351.903 C 358.18 342.313 358.14 318.263 373.594 308.613 C 387.278 300.07 404.713 308.451 407.946 325.128 C 408.267 326.795 408.433 328.49 408.438 330.193 Z" style="fill: rgb(71, 66, 58);"/>
  <path d="M 391.921 306.226 L 391.921 307.135 L 385.305 330.731 L 379.995 305.837 C 383.934 304.85 388.044 304.983 391.921 306.226 Z" style="fill: rgb(202, 138, 4);"/>
  <path d="M 391.876 354.168 C 388.087 355.379 384.074 355.525 380.216 354.601 L 385.305 330.731 L 391.876 354.168 Z" style="fill: rgb(202, 138, 4);"/>
  <path d="M 408.438 330.193 C 408.44 332.795 408.064 335.383 407.329 337.862 L 407.215 337.862 L 385.305 330.731 L 407.96 325.128 C 408.277 326.795 408.438 328.491 408.438 330.193 Z" style="fill: rgb(202, 138, 4);"/>
  <path d="M 385.305 330.731 L 363.397 337.857 L 363.227 337.857 C 362.008 333.737 361.789 329.349 362.594 325.111 L 385.305 330.731 Z" style="fill: rgb(202, 138, 4);"/>
  <circle cx="920.326" cy="625.129" r="5.19" style="" transform="matrix(0.489744, 0, 0, 0.527514, -65.448608, 0.42124)"/>
  <path d="M 216.529 260.535 L 209.286 276.259 L 201.278 276.259 L 206.632 266.336 C 209.586 264.489 212.911 262.522 216.529 260.535 Z" fill="#fff" opacity="0.2" style=""/>
  <path d="M 236.403 251.097 L 229.189 276.243 L 218.543 276.243 L 227.212 255.068 C 230.168 253.687 233.244 252.359 236.403 251.097 Z" fill="#fff" opacity="0.2" style=""/>
  <path d="M 311.403 244.065 L 295.686 274.086 L 294.981 274.137 C 293.022 274.276 291.205 274.364 289.663 274.398 L 303.8 243.572 L 305.703 243.684 C 307.485 243.792 309.403 243.916 311.403 244.065 Z" fill="#fff" opacity="0.2" style=""/>
  <polygon points="192.481 276.153 183.511 342.722 258.446 340.954 270.75 276.441 192.481 276.153" fill="none" stroke="#fff" stroke-miterlimit="10" opacity="0.2" style=""/>
  <path d="M 331.707 345.959 C 330.625 346.486 328.073 347.88 327.707 350.07 L 160.399 350.07 L 156.971 350.037 C 157.7 348.721 158.354 347.357 158.931 345.953 L 331.707 345.959 Z" fill="#18218a" opacity="0.5" style=""/>
  <path d="M 187.062 394.064 C 188.202 392.919 189.275 391.568 189.607 389.928 C 189.941 388.286 189.29 386.315 187.831 385.708 C 186.199 385.031 184.45 386.237 183.129 387.483 C 181.806 388.736 180.289 390.122 178.559 389.858 C 180.37 388.089 181.187 385.426 180.709 382.842 C 180.635 382.319 180.428 381.827 180.111 381.42 C 179.207 380.364 177.561 380.822 176.479 381.644 C 173.048 384.283 172.071 389.311 172.044 393.857 C 171.699 392.218 171.993 390.508 171.982 388.825 C 171.973 387.143 171.547 385.281 170.23 384.373 C 169.409 383.899 168.487 383.666 167.555 383.697 C 166.002 383.634 164.273 383.804 163.216 385.026 C 161.898 386.546 162.237 389.095 163.387 390.766 C 164.537 392.438 166.277 393.489 167.878 394.644 C 169.164 395.467 170.259 396.596 171.086 397.941 C 171.183 398.129 171.265 398.327 171.325 398.532 L 181.052 398.532 C 183.233 397.34 185.255 395.838 187.062 394.064 Z" style="fill: rgb(247, 107, 28);"/>
  <path d="M 390.35 402.936 C 391.246 402.15 391.901 401.083 392.226 399.887 C 392.471 398.672 391.99 397.225 390.91 396.781 C 389.707 396.283 388.419 397.181 387.445 398.093 C 386.47 399.006 385.349 400.041 384.071 399.846 C 385.406 398.54 386.008 396.575 385.658 394.669 C 385.603 394.282 385.449 393.917 385.217 393.615 C 384.545 392.845 383.336 393.176 382.534 393.784 C 379.986 395.713 379.277 399.437 379.261 402.796 C 379.007 401.585 379.221 400.325 379.212 399.102 C 379.203 397.878 378.891 396.463 377.92 395.819 C 377.318 395.471 376.642 395.298 375.96 395.318 C 374.815 395.271 373.542 395.398 372.759 396.301 C 371.778 397.42 372.037 399.304 372.885 400.521 C 373.732 401.74 375.016 402.524 376.201 403.379 C 377.151 403.986 377.961 404.819 378.57 405.811 C 378.644 405.949 378.701 406.093 378.748 406.243 L 385.922 406.243 C 387.53 405.362 389.019 404.249 390.35 402.936 Z" style="fill: rgb(247, 107, 28);"/>
  <path d="M 422.183 419.718 C 423.079 418.928 423.735 417.865 424.058 416.668 C 424.301 415.454 423.824 414.003 422.745 413.56 C 421.541 413.064 420.253 413.961 419.279 414.874 C 418.303 415.787 417.183 416.821 415.903 416.627 C 417.24 415.32 417.843 413.356 417.492 411.45 C 417.434 411.062 417.283 410.698 417.049 410.396 C 416.379 409.625 415.17 409.958 414.366 410.565 C 411.82 412.494 411.11 416.221 411.095 419.574 C 410.839 418.367 411.055 417.104 411.046 415.88 C 411.035 414.656 410.723 413.246 409.755 412.602 C 409.152 412.253 408.476 412.08 407.793 412.099 C 406.647 412.053 405.376 412.179 404.59 413.079 C 403.613 414.198 403.872 416.083 404.718 417.3 C 405.567 418.519 406.848 419.305 408.034 420.159 C 408.985 420.768 409.794 421.601 410.404 422.592 C 410.475 422.73 410.536 422.874 410.581 423.024 L 417.755 423.024 C 419.362 422.14 420.851 421.03 422.183 419.718 Z" style="fill: rgb(247, 107, 28);"/>
  <path d="M 330.146 384.451 C 330.146 384.451 328.436 385.456 327.658 379.778 C 327.167 376.087 325.741 368.473 324.806 363.53 L 324.688 362.904 C 324.957 362.813 325.219 362.707 325.479 362.588 C 325.479 362.588 320.032 339.904 321.275 334.883 C 322.52 329.86 321.275 320.861 321.275 320.861 L 318.009 309.013 C 318.009 309.013 309.918 306.006 306.809 305.172 C 303.698 304.338 294.988 298.493 294.988 298.493 C 295.135 298.682 295.276 298.876 295.407 299.08 L 295.059 298.854 C 294.425 298.214 293.85 297.508 293.346 296.743 C 295.084 294.753 296.207 292.232 296.569 289.527 C 298.937 284.69 298.669 278.849 295.873 274.286 C 296.403 273.573 296.806 272.761 297.063 271.892 C 297.167 271.495 297.211 271.081 297.195 270.667 C 297.311 269.312 296.631 268.023 295.491 267.433 C 294.74 267.098 293.894 267.108 293.149 267.461 C 292.46 267.798 291.916 268.431 291.161 268.6 C 289.903 268.88 288.826 267.792 287.835 266.985 C 286.298 265.753 284.465 265.019 282.551 264.875 C 281.721 264.777 280.881 264.895 280.103 265.224 C 279.364 265.673 278.683 266.224 278.075 266.865 C 275.833 268.811 272.689 269.354 269.872 270.415 C 269.334 270.616 268.735 270.942 268.638 271.47 C 268.616 271.573 268.616 271.681 268.638 271.786 C 268.615 271.92 268.625 272.059 268.667 272.188 C 263.417 273.136 258.281 277.431 258.281 277.431 L 257.419 278.289 C 256.841 277.955 256.137 278.019 255.621 278.452 L 253.888 279.921 C 253.238 280.466 253.07 281.45 253.494 282.21 L 240.816 294.871 L 240.54 295.143 L 240.54 295.097 C 240.54 295.097 230.747 303.11 230.747 308.779 C 230.747 312.878 233.686 315.406 235.287 316.497 C 233.85 317.954 232.763 319.764 232.121 321.774 L 232.121 321.825 L 232.121 321.9 L 232.121 321.958 L 232.121 322.021 L 232.121 322.073 L 232.121 322.131 L 232.121 322.186 L 232.121 322.237 L 232.121 322.285 L 232.121 322.331 L 232.121 322.375 L 232.121 322.423 L 232.121 322.457 L 232.121 322.517 L 232.121 322.571 L 232.121 322.599 L 232.121 322.634 L 232.121 322.865 L 232.121 322.928 L 232.121 323.056 L 232.121 323.143 L 232.121 323.236 L 232.085 323.467 L 232.085 323.561 L 232.06 323.718 L 232.06 323.782 L 232.06 323.937 L 232.06 324.047 L 232.026 324.257 L 231.98 324.522 L 231.98 324.574 L 231.948 324.794 L 231.948 324.902 L 231.907 325.143 L 231.907 325.208 L 231.863 325.481 L 231.863 325.603 L 231.751 326.295 L 231.693 326.667 L 231.693 326.732 L 231.628 327.119 L 231.628 327.169 L 231.564 327.558 L 231.564 327.591 L 231.497 328.004 L 231.497 328.091 L 231.427 328.498 L 231.427 328.589 L 231.364 328.991 L 231.364 329.036 L 231.291 329.49 L 231.291 329.574 L 231.124 330.589 L 231.04 331.115 L 231.04 331.194 L 230.956 331.722 L 230.956 331.758 L 230.776 332.814 L 230.776 332.903 L 230.688 333.432 L 230.688 333.507 L 230.497 334.619 L 230.497 334.666 L 230.399 335.23 L 230.399 335.277 L 230.203 336.426 L 230.203 336.502 L 230.105 337.07 L 230.105 337.113 L 229.898 338.29 L 229.898 338.352 L 229.798 338.933 L 229.798 338.975 L 229.585 340.166 L 229.585 340.215 L 229.482 340.796 L 229.482 340.842 L 228.587 342.034 L 228.587 342.087 L 228.48 342.662 L 228.48 342.695 L 228.258 343.864 L 228.258 343.897 L 228.151 344.467 L 228.151 344.498 L 227.934 345.617 L 227.934 345.663 L 227.833 346.191 L 227.833 346.239 L 227.622 347.293 L 227.622 347.332 L 227.52 347.857 L 227.52 347.913 L 227.314 348.908 L 227.314 348.934 L 227.215 349.405 L 227.215 349.451 C 227.147 349.769 227.08 350.074 227.015 350.369 L 226.917 350.802 L 226.917 350.84 C 226.851 351.128 226.788 351.405 226.727 351.668 L 226.634 352.047 L 226.634 352.089 L 226.545 352.453 C 226.154 354.036 225.811 355.091 225.566 355.339 C 225.318 355.62 225.121 355.949 224.993 356.31 L 224.953 356.415 L 224.915 356.531 L 224.881 356.647 L 224.718 356.805 L 224.683 356.927 L 224.654 357.037 L 224.625 357.165 L 224.625 357.281 L 224.601 357.407 L 224.601 357.523 C 224.601 357.606 224.589 357.692 224.561 357.776 L 224.561 357.881 L 224.561 358.024 L 224.561 358.134 L 224.561 358.276 L 224.561 358.389 L 224.561 358.531 L 224.561 358.642 L 224.561 358.783 L 224.561 358.89 C 224.561 359.063 224.561 359.232 224.561 359.415 C 224.561 359.448 224.561 359.481 224.561 359.518 C 224.561 359.554 224.561 359.606 224.561 359.652 C 224.561 359.701 224.561 359.724 224.561 359.754 C 224.561 359.785 224.561 359.844 224.561 359.885 C 224.561 359.929 224.561 359.949 224.561 359.987 C 224.561 360.023 224.561 360.071 224.561 360.112 L 224.561 360.21 C 224.561 360.251 224.561 360.292 224.561 360.334 L 224.561 360.418 C 224.561 360.497 224.561 360.571 224.561 360.646 L 224.561 361.479 L 224.561 361.595 L 224.561 361.926 L 226.03 362.407 C 226.03 362.407 226.769 362.844 227.911 363.415 C 227.75 368.738 227.294 375.944 226.055 380.354 C 223.294 380.507 216.471 380.816 215.236 380.284 C 213.68 379.615 203.722 377.948 206.837 385.623 C 208.141 388.842 210.975 391.268 213.827 393.009 C 213.472 393.133 213.113 393.233 212.748 393.308 C 210.21 393.835 209.506 394.751 209.605 395.689 C 209.423 397.271 211.92 399.038 212.128 399.149 C 212.44 399.318 223.014 401.154 225.506 400.314 C 227.999 399.475 238.107 397.476 238.107 397.476 C 238.107 397.476 238.107 397.355 238.107 397.145 C 238.107 397.145 237.97 393.862 237.587 390.75 C 238.734 390.571 239.983 390.407 241.198 390.308 C 241.514 391.907 242.496 393.257 243.862 393.974 C 250.553 397.666 252.731 392.638 252.731 392.638 C 252.731 392.638 261.777 394.512 266.829 393.166 C 267.359 393.695 267.81 394.068 268.13 394.323 C 269.77 395.592 274.186 396.463 279.13 396.527 C 280.444 396.667 281.769 396.627 283.075 396.405 C 285.258 396.25 287.419 395.886 289.541 395.314 C 295.491 393.652 296.798 387.693 297.084 384.983 C 297.317 384.909 297.485 384.648 297.571 384.152 C 297.689 383.882 297.759 383.591 297.778 383.292 C 297.908 382.067 298.121 380.855 298.415 379.663 L 305.761 380.107 C 309.043 386.52 311.942 391.621 311.942 391.621 L 316.918 390.953 C 314.703 389.043 312.765 386.793 311.164 384.273 C 308.674 380.272 308.674 361.063 308.674 361.063 L 308.954 349.366 L 308.954 349.489 L 308.954 348.923 C 309.414 352.389 313.064 362.445 313.475 362.594 C 313.772 362.698 314.066 362.793 314.357 362.881 L 314.621 363.632 C 316.696 369.558 321.966 384.732 322.337 387.126 C 322.827 390.133 342.251 391.3 346.605 389.796 C 350.958 388.292 330.146 384.451 330.146 384.451 Z M 260.763 318.026 L 253.64 329.548 C 251.087 324.801 248.422 320.434 246.013 317.542 C 252.328 317.768 259.612 318.01 260.763 318.026 Z M 259.681 288.486 C 260.245 288.772 260.907 288.695 261.4 288.281 L 262.008 287.754 C 262.648 287.218 262.824 286.255 262.423 285.497 L 262.785 285.111 C 265.294 284.653 267.767 284.006 270.19 283.174 C 270.282 285.556 270.904 287.879 272.002 289.949 C 272.218 291.272 272.622 292.553 273.198 293.747 C 272.082 293.647 270.866 293.577 269.705 293.587 C 268.69 293.565 267.677 293.634 266.673 293.793 C 262.943 294.464 262.472 301.806 262.472 301.806 C 262.472 301.806 254.975 304.645 250.467 304.747 C 249.897 304.747 249.33 304.655 248.783 304.476 L 248.328 304.445 L 248.94 302.64 C 248.94 302.64 248.676 302.728 248.24 302.825 C 248.38 302.596 248.529 302.364 248.68 302.128 C 251.531 297.724 256.466 292.046 259.681 288.496 L 259.681 288.486 Z M 244.274 377.61 C 243.7 378.668 243.185 379.758 242.73 380.88 C 240.962 381.25 238.552 381.456 237.275 380.279 C 236.698 379.77 235.973 379.496 235.228 379.504 L 235.257 379.441 C 236.139 377.621 236.887 373.545 237.477 369.324 C 240.327 369.324 243.035 366.755 243.035 366.755 L 246.623 368.078 L 246.756 368.346 L 246.845 368.521 L 246.987 368.805 L 247.074 368.985 L 247.217 369.266 L 247.309 369.444 L 247.452 369.719 L 247.544 369.899 L 247.682 370.169 L 247.775 370.348 L 247.917 370.617 L 248.01 370.789 L 248.153 371.053 L 248.24 371.222 L 248.382 371.485 L 248.47 371.648 L 248.608 371.907 L 248.697 372.071 L 248.839 372.331 L 248.921 372.477 L 249.062 372.733 L 249.146 372.88 L 249.288 373.133 L 249.361 373.264 L 249.51 373.523 L 249.561 373.615 C 249.818 374.066 250.052 374.492 250.292 374.894 L 250.326 374.95 L 250.463 375.182 L 250.522 375.283 L 250.645 375.495 L 250.713 375.606 L 250.827 375.795 L 250.895 375.917 L 250.997 376.092 L 251.071 376.212 L 251.17 376.376 L 251.237 376.493 L 251.326 376.641 L 251.393 376.756 L 251.479 376.894 L 251.545 377.01 L 251.625 377.136 L 251.692 377.247 C 249.241 377.681 246.751 377.805 244.274 377.61 Z" fill="url(#acc8b6a5-9f39-4130-a42e-d6ce30e2b206-391)" style=""/>
  <path d="M 344.881 388.847 C 340.635 390.319 321.678 389.173 321.221 386.209 C 320.859 383.851 315.723 369.012 313.695 363.21 L 312.882 360.889 L 322.74 358.598 C 322.74 358.598 323.102 360.46 323.601 363.113 C 324.514 367.955 325.888 375.432 326.379 379.019 C 327.138 384.573 328.829 383.592 328.829 383.592 C 328.829 383.592 349.113 387.376 344.881 388.847 Z" fill="#ffbdc6" style=""/>
  <path d="M 291.323 292.449 C 291.323 292.449 290.564 297.347 297.088 301.944 C 303.611 306.539 297.998 323.018 297.998 323.018 L 293.174 323.308 C 286.809 323.692 281.299 318.583 280.705 311.745 C 280.705 311.745 283.432 306.998 278.427 294.754 L 291.323 292.449 Z" fill="#ffbdc6" style=""/>
  <path d="M 263.132 286.42 C 263.132 286.42 253.746 296.277 249.382 303.072 C 248.862 303.861 248.391 304.682 247.966 305.531 C 244.782 312.067 237.378 301.443 239.938 297.77 L 241.707 295.994 L 258.731 278.904 C 258.731 278.904 270.411 269.102 276.321 276.127 C 282.232 283.155 263.132 286.42 263.132 286.42 Z" fill="#ffbdc6" style=""/>
  <circle cx="713.506" cy="537.359" r="27.87" fill="#a66477" style="" transform="matrix(0.489744, 0, 0, 0.527514, -65.448608, 0.42124)"/>
  <path d="M 228.406 379.529 C 228.406 379.529 218.243 380.184 216.724 379.529 C 215.206 378.876 205.505 377.247 208.556 384.764 C 211.608 392.281 223.116 395.382 223.116 395.382 L 231.441 393.092 L 228.406 379.529 Z" style="fill: rgb(63, 63, 71);"/>
  <path d="M 264.651 347.352 L 285.048 356.276 L 296.651 382.823 C 296.651 382.823 296.804 392.133 289.223 394.259 C 281.64 396.385 271.023 395.402 268.289 393.278 C 265.559 391.152 254.338 378.576 254.338 378.576 L 264.651 347.352 Z" style="fill: rgb(86, 87, 101);"/>
  <path d="M 263.265 347.352 L 280.921 354.481 L 290.966 375.722 C 290.966 375.722 291.097 383.174 284.535 384.876 C 277.973 386.575 268.78 385.785 266.415 384.087 C 264.049 382.391 254.338 372.319 254.338 372.319 L 263.265 347.352 Z" opacity="0.05" style="fill: rgb(63, 63, 71);"/>
  <path d="M 245.693 379.529 C 245.693 379.529 240.385 381.493 238.264 379.529 C 236.143 377.569 232.349 380.02 232.349 380.02 L 234.021 390.641 C 234.021 390.641 241.604 388.842 245.704 389.33 L 245.693 379.529 Z" fill="#ffbdc6" style=""/>
  <path d="M 245.693 379.529 C 245.693 379.529 240.385 381.493 238.264 379.529 C 236.143 377.569 232.349 380.02 232.349 380.02 L 234.021 390.641 C 234.021 390.641 241.604 388.842 245.704 389.33 L 245.693 379.529 Z" opacity="0.05" style=""/>
  <path d="M 248.715 368.1 L 243.873 366.301 C 243.873 366.301 238.564 371.365 235.055 367.119 C 231.551 362.872 238.239 345.226 238.239 345.226 L 245.365 332.809 L 250.522 350.288 L 255.224 358.783 L 248.715 368.1 Z" fill="#565388" style=""/>
  <path d="M 248.715 368.1 L 243.873 366.301 C 243.873 366.301 238.564 371.365 235.055 367.119 C 231.551 362.872 238.239 345.226 238.239 345.226 L 245.365 332.809 L 250.522 350.288 L 255.224 358.783 L 248.715 368.1 Z" opacity="0.05" style=""/>
  <polygon points="294.981 367.118 305.903 368.747 308.028 379.529 294.531 378.713 294.981 367.118" fill="#565388" style=""/>
  <polygon points="294.981 367.118 305.903 368.747 308.028 379.529 294.531 378.713 294.981 367.118" opacity="0.05" style=""/>
  <path d="M 279.667 307.984 C 279.667 307.984 284.218 326.768 298.767 313.21 L 302.709 367.119 C 302.709 367.119 297.855 375.448 297.098 382.944 C 296.337 390.44 283.144 359.733 275.259 359.585 C 267.373 359.437 259.563 347.579 259.563 347.579 L 268.437 327.893 L 279.667 307.984 Z" opacity="0.1" style=""/>
  <path d="M 279.819 307.492 C 279.819 307.492 284.369 326.277 298.919 312.721 L 302.86 366.627 C 302.86 366.627 298.007 374.956 297.25 382.452 C 296.489 389.949 283.295 359.241 275.412 359.095 C 267.526 358.947 259.715 347.088 259.715 347.088 L 268.589 327.401 L 279.819 307.492 Z" style="fill: rgb(238, 238, 238);"/>
  <path d="M 277.39 295.404 C 277.39 295.404 271.023 294.258 267.381 294.912 C 263.734 295.566 263.285 302.752 263.285 302.752 C 263.285 302.752 252.972 306.672 249.484 305.39 C 249.484 305.39 232.343 304.08 232.343 309.635 C 232.343 315.189 237.809 317.768 237.809 317.768 C 237.809 317.768 261.607 318.634 261.771 318.587 C 267.231 316.952 261.619 318.587 261.619 318.587 L 251.762 334.595 L 260.862 348.153 L 270.568 340.48 C 270.568 340.48 271.782 333.288 274.977 329.696 C 277.247 327.128 280.221 315.564 281.733 309.166 C 282.376 306.444 281.979 303.557 280.632 301.152 L 277.39 295.404 Z" opacity="0.1" style=""/>
  <path d="M 249.382 303.072 C 248.862 303.861 248.391 304.682 247.966 305.531 C 244.782 312.067 237.378 301.443 239.938 297.77 L 241.707 295.994 C 241.061 304.424 247.432 303.526 249.382 303.072 Z" opacity="0.1" style=""/>
  <path d="M 261.619 317.947 L 261.45 317.947 C 261.45 317.947 267.08 316.313 261.619 317.947 Z" opacity="0.1" style=""/>
  <path d="M 276.934 295.404 C 276.934 295.404 270.568 294.258 266.925 294.912 C 263.281 295.566 262.829 302.752 262.829 302.752 C 262.829 302.752 252.516 306.672 249.029 305.39 L 249.637 303.59 C 249.637 303.59 240.39 306.691 241.447 296.222 C 241.447 296.222 231.894 304.059 231.894 309.613 C 231.894 315.169 237.353 317.768 237.353 317.768 C 237.353 317.768 261.151 318.634 261.317 318.587 C 266.777 316.952 261.164 318.587 261.164 318.587 L 251.305 334.595 L 260.406 348.153 L 270.113 340.48 C 270.113 340.48 271.326 333.288 274.519 329.696 C 276.792 327.128 279.765 315.564 281.278 309.166 C 281.922 306.444 281.523 303.557 280.176 301.152 L 276.934 295.404 Z" style="fill: rgb(28, 27, 23);"/>
  <path d="M 308.178 348.497 L 308.178 349.393 C 308.117 349.098 308.117 348.79 308.178 348.497 Z" opacity="0.1" style=""/>
  <path d="M 323.601 363.135 C 320.379 364.204 316.935 364.24 313.695 363.231 L 312.882 360.91 L 322.74 358.619 C 322.74 358.619 323.097 360.498 323.601 363.135 Z" opacity="0.1" style=""/>
  <path d="M 294.075 299.487 C 294.075 299.487 302.568 305.204 305.604 306.023 C 308.64 306.84 316.526 309.777 316.526 309.777 L 319.709 321.383 C 319.709 321.383 320.924 330.203 319.709 335.098 C 318.493 339.994 307.122 349.309 307.729 347.837 L 307.426 360.742 C 307.426 360.742 307.426 379.525 309.874 383.425 C 312.321 387.322 305.246 379.585 305.246 379.585 C 305.246 379.585 296.676 365.94 295.617 357.286 C 294.561 348.629 296.22 315.332 296.22 315.332 L 294.703 313.041 C 294.703 313.041 297.865 304.222 294.075 299.487 Z" opacity="0.1" style=""/>
  <path d="M 294.531 299.487 C 294.531 299.487 303.022 305.204 306.06 306.023 C 309.095 306.84 316.98 309.777 316.98 309.777 L 320.163 321.383 C 320.163 321.383 321.378 330.203 320.163 335.098 C 318.949 339.994 324.258 362.216 324.258 362.216 C 324.258 362.216 319.361 364.657 312.578 362.216 C 312.122 362.054 307.573 349.315 308.17 347.842 L 307.866 360.748 C 307.866 360.748 307.866 379.529 310.314 383.43 C 311.878 385.894 313.768 388.098 315.926 389.964 L 311.075 390.619 C 311.075 390.619 297.107 365.974 296.045 357.332 C 294.981 348.692 296.651 315.349 296.651 315.349 L 295.132 313.059 C 295.132 313.059 298.322 304.222 294.531 299.487 Z" style="fill: rgb(28, 27, 23);"/>
  <path d="M 253.123 377.905 C 253.123 377.905 242.961 362.083 243.416 354.693 C 243.416 354.693 242.2 364.826 240.84 365.478 C 239.479 366.132 225.824 361.554 225.824 361.554 C 225.824 361.554 225.218 356.805 226.737 355.181 C 228.254 353.558 232.956 323.324 232.956 323.324 C 232.956 323.324 234.626 315.158 241.903 314.667 C 249.181 314.177 265.563 354.036 265.563 354.036 C 265.563 354.036 267.987 377.905 253.123 377.905 Z" style="fill: rgb(73, 74, 90);"/>
  <path d="M 229.165 356.335 C 229.165 356.335 229.469 379.205 225.677 382.965 C 221.887 386.726 236.75 388.682 236.75 388.682 C 236.75 388.682 234.174 383.128 236.295 378.717 C 238.417 374.309 239.783 356.335 239.783 356.335 L 229.165 356.335 Z" fill="#ffbdc6" style=""/>
  <path d="M 229.919 382.653 C 229.919 382.653 228.401 378.571 224.306 381.835 C 224.306 381.835 220.667 390.981 214.296 392.293 C 207.925 393.598 213.386 397.518 213.689 397.683 C 213.993 397.847 224.306 399.647 226.729 398.826 C 229.155 398.009 239.012 396.052 239.012 396.052 C 239.012 396.052 238.56 385.27 237.055 384.446 C 235.55 383.626 236.291 389.335 229.919 382.653 Z" opacity="0.05" style=""/>
  <path d="M 229.919 382.965 C 229.919 382.965 228.401 378.883 224.306 382.149 C 224.306 382.149 220.667 391.294 214.296 392.601 C 207.925 393.909 213.386 397.83 213.689 397.994 C 213.993 398.156 224.306 399.956 226.729 399.138 C 229.155 398.319 239.018 396.368 239.018 396.368 C 239.018 396.368 238.564 385.587 237.059 384.764 C 235.556 383.939 236.291 389.659 229.919 382.965 Z" style="fill: rgb(63, 63, 71);"/>
  <path d="M 258.476 280.315 C 259.755 282.459 261.137 284.531 262.611 286.526 C 263.203 287.272 263.096 288.399 262.38 289.004 L 261.787 289.506 C 261.073 290.106 260.036 289.952 259.505 289.162 C 258.176 287.182 256.516 285.487 254.606 284.166 C 253.666 283.536 253.592 282.089 254.459 281.35 L 256.15 279.915 C 256.884 279.29 257.958 279.476 258.476 280.315 Z" fill="#565388" style=""/>
  <path d="M 293.081 298.251 C 291.123 295.281 291.494 292.926 291.494 292.926 L 278.591 295.238 C 279.486 297.395 280.224 299.621 280.793 301.902 C 285.201 303.289 289.957 301.876 293.081 298.251 Z" opacity="0.1" style=""/>
  <circle cx="713.666" cy="546.799" r="24.77" fill="#ffbdc6" style="" transform="matrix(0.489744, 0, 0, 0.527514, -65.448608, 0.42124)"/>
  <path d="M 278.727 282.055 C 279.873 281.851 280.892 281.127 282.053 281.066 C 283.522 280.984 284.848 281.999 285.881 283.044 C 286.915 284.088 287.919 285.278 289.34 285.733 C 290.246 285.963 291.183 286.03 292.11 285.933 C 292.627 285.963 293.14 285.823 293.58 285.533 C 293.802 285.312 293.971 285.033 294.071 284.726 C 294.872 282.74 294.855 280.48 294.027 278.506 C 293.912 278.305 293.862 278.065 293.89 277.833 C 293.933 277.691 294.005 277.563 294.098 277.457 C 295.079 276.211 296.112 274.967 296.51 273.459 C 296.906 271.952 296.421 270.093 294.976 269.423 C 294.248 269.086 293.423 269.086 292.695 269.423 C 292.019 269.757 291.494 270.372 290.736 270.537 C 289.506 270.809 288.453 269.745 287.493 268.954 C 285.998 267.748 284.21 267.026 282.346 266.885 C 281.531 266.783 280.704 266.902 279.943 267.229 C 279.228 267.665 278.57 268.196 277.981 268.811 C 275.792 270.716 272.727 271.249 269.986 272.286 C 269.461 272.488 268.878 272.781 268.78 273.343 C 268.681 273.9 269.269 274.466 269.858 274.707 C 270.444 274.95 271.121 275.111 271.513 275.599 C 272.002 276.233 271.847 277.128 271.935 277.925 C 272.117 279.508 273.403 280.368 274.827 280.829 C 276.008 281.235 277.556 282.267 278.727 282.055 Z" opacity="0.1" style=""/>
  <path d="M 278.727 281.731 C 279.873 281.526 280.892 280.802 282.053 280.737 C 283.522 280.659 284.848 281.67 285.881 282.716 C 286.915 283.762 287.919 284.953 289.34 285.404 C 290.246 285.636 291.183 285.703 292.11 285.608 C 292.627 285.634 293.14 285.496 293.58 285.205 C 293.802 284.985 293.971 284.707 294.071 284.398 C 294.872 282.412 294.855 280.153 294.027 278.179 C 293.912 277.976 293.862 277.739 293.89 277.505 C 293.933 277.364 294.005 277.235 294.098 277.128 C 295.079 275.884 296.112 274.641 296.51 273.131 C 296.906 271.622 296.421 269.764 294.976 269.096 C 294.248 268.757 293.423 268.757 292.695 269.096 C 292.019 269.428 291.494 270.045 290.736 270.209 C 289.506 270.482 288.453 269.419 287.493 268.626 C 286.012 267.447 284.252 266.743 282.414 266.599 C 281.599 266.499 280.773 266.617 280.01 266.943 C 279.297 267.379 278.64 267.911 278.051 268.525 C 275.861 270.43 272.796 270.963 270.054 272.003 C 269.528 272.202 268.947 272.498 268.849 273.056 C 268.75 273.616 269.338 274.181 269.926 274.423 C 270.514 274.665 271.191 274.823 271.582 275.316 C 272.072 275.947 271.916 276.845 272.002 277.64 C 272.183 279.223 273.47 280.084 274.897 280.542 C 276.008 280.905 277.556 281.939 278.727 281.731 Z" fill="#a66477" style=""/>
  <path d="M 268.936 344.589 C 268.936 344.589 277.601 346.17 279.765 351.21 C 281.93 356.248 294.946 369.876 294.946 369.876" opacity="0.05" style=""/>
  <g opacity="0.05" transform="matrix(0.489744, 0, 0, 0.527514, 7.68284, 39.493809)" style="">
    <path d="M581.54,702.28c-2.79,1.24-30.66-7.43-30.66-7.43a29.59,29.59,0,0,1,.09-8.11c-1.6,3.86-.71,10.28-.71,10.28s27.87,8.67,30.66,7.43c.92-.41,1.81-2.79,2.59-5.8C582.89,700.58,582.23,702,581.54,702.28Z" transform="translate(-104.84 -86.48)"/>
    <path d="M565.4,622.63a18.25,18.25,0,0,0-.58,1.92s-6.72,40.13-10.73,55C557.8,667.48,564.8,626.2,565.4,622.63Z" transform="translate(-104.84 -86.48)"/>
    <path d="M606.62,725.82s-20.75-30-19.82-44c0,0-.22,1.74-.61,4.2C587.13,700.66,606,728,606,728c14.43,0,20.88-10.22,23.67-20.95C626.59,716.93,620.08,725.82,606.62,725.82Z" transform="translate(-104.84 -86.48)"/>
  </g>
  <path d="M 227.25 362.031 C 227.25 362.031 236.515 367.53 239.856 364.913 C 243.196 362.296 241.07 358.214 241.07 358.214 L 238.49 353.639 L 229.845 353.639 L 226.964 359.031 L 227.25 362.031 Z" style="fill: rgb(73, 74, 90);"/>
  <path d="M 289.647 384.504 C 289.647 384.504 290.254 371.437 274.783 371.599 C 259.312 371.764 274.175 371.599 274.175 371.599 C 274.175 371.599 268.109 369.637 260.527 374.237 C 252.945 378.836 244.295 377.83 244.295 377.83 C 244.295 377.83 237.317 390.247 243.84 393.84 C 250.365 397.433 252.485 392.504 252.485 392.504 C 252.485 392.504 265.831 395.28 268.867 391.525 C 273.299 396.253 279.923 397.677 285.699 395.144 C 285.699 395.144 293.286 391.525 289.647 384.504 Z" style="fill: rgb(73, 74, 90);"/>
</svg>