<?xml version="1.0" encoding="utf-8"?>
<svg viewBox="0 0 500 500" xmlns="http://www.w3.org/2000/svg">
  <path fill="#2f2e41" style=""/>
  <path fill="#2f2e41" style="" transform="matrix(0.999992, 0.004082, -0.004082, 0.999992, 0, 0)"/>
  <circle id="a35e044f-57c7-4e60-ba2c-0b63f07d3a91" data-name="a7a88a4d-66b2-4c09-a29b-e65e87e57a01" cx="65.341" cy="-56.052" r="6.315" fill="#fff" style="" transform="matrix(0.576938, 0.002623, 0.000664, 0.821841, 3.740754, 88.66143)"/>
  <circle id="b8ca9947-3ca9-4995-aa34-7c8526cbf832" data-name="ecd091ab-fa27-42b2-b94f-bd1073aab054" cx="89.313" cy="-56.052" r="6.315" fill="#fff" style="" transform="matrix(0.576938, 0.002623, 0.000664, 0.821841, 3.740844, 88.66143)"/>
  <circle id="a31b64b8-966e-40be-99c3-e775622dac5b" data-name="a332723e-32dc-4e13-8ae5-d2643a7feb7f" cx="113.285" cy="-56.052" r="6.315" fill="#fff" style="" transform="matrix(0.576938, 0.002623, 0.000664, 0.821841, 3.740937, 88.66143)"/>
  <path d="M 473.712 41.12 L 457.785 41.12 C 456.877 41.119 456.304 39.716 456.754 38.595 C 456.962 38.079 457.348 37.761 457.767 37.76 L 473.695 37.76 C 474.603 37.759 475.178 39.158 474.73 40.279 C 474.522 40.797 474.137 41.119 473.715 41.12 L 473.712 41.12 Z" fill="#fff" style="" transform="matrix(0.99999, 0.004541, -0.004541, 0.99999, 0.183899, -2.114524)"/>
  <path d="M 473.718 47.422 L 457.791 47.422 C 456.883 47.42 456.31 46.017 456.76 44.898 C 456.968 44.381 457.354 44.062 457.773 44.061 L 473.7 44.061 C 474.608 44.06 475.183 45.461 474.735 46.582 C 474.528 47.1 474.142 47.42 473.721 47.422 L 473.718 47.422 Z" fill="#fff" style="" transform="matrix(0.99999, 0.004541, -0.004541, 0.99999, 0.212514, -2.114484)"/>
  <path d="M 473.723 53.725 L 457.796 53.725 C 456.888 53.725 456.313 52.324 456.762 51.205 C 456.969 50.683 457.356 50.365 457.778 50.365 L 473.705 50.365 C 474.613 50.361 475.189 51.76 474.743 52.882 C 474.536 53.403 474.149 53.724 473.726 53.725 L 473.723 53.725 Z" fill="#fff" style="" transform="matrix(0.99999, 0.004541, -0.004541, 0.99999, 0.241138, -2.114441)"/>
  <path d="M 117.101 426.834 C 119.362 407.521 130.916 388.496 148.785 382.212 C 141.804 402.087 141.889 423.892 149.026 443.768 C 151.807 451.423 155.67 459.644 153.114 467.359 C 151.522 472.16 147.601 475.832 143.21 478.131 C 138.816 480.425 133.937 481.52 129.119 482.593 L 128.173 483.4 C 120.449 465.608 114.846 446.145 117.101 426.834 Z" style="fill: rgba(147, 101, 4, 0.82);" transform="matrix(0.999995, 0.00305, -0.00305, 0.999995, 1.320688, -0.410572)"/>
  <path d="M 148.965 382.586 C 138.594 394.605 132.172 409.695 130.622 425.715 C 130.228 429.159 130.365 432.647 131.027 436.049 C 131.774 439.344 133.367 442.375 135.635 444.83 C 137.705 447.16 140.084 449.3 141.57 452.106 C 143.066 455.036 143.28 458.477 142.156 461.567 C 140.869 465.412 138.315 468.546 135.712 471.521 C 132.822 474.823 129.771 478.206 128.555 482.585 C 128.407 483.117 127.616 482.848 127.763 482.317 C 129.879 474.698 137.047 470.371 140.448 463.509 C 142.034 460.308 142.691 456.59 141.178 453.211 C 139.857 450.255 137.405 448.047 135.288 445.706 C 133.042 443.345 131.389 440.458 130.473 437.292 C 129.646 433.934 129.378 430.458 129.684 427.011 C 130.251 419.243 132.003 411.618 134.873 404.419 C 138.104 396.182 142.684 388.581 148.412 381.943 C 148.766 381.532 149.319 382.179 148.965 382.586 Z" fill="#fff" style="" transform="matrix(0.999995, 0.00305, -0.00305, 0.999995, 1.31929, -0.420145)"/>
  <path d="M 130.883 420.491 C 125.558 419.163 121.939 414.063 122.332 408.448 C 122.359 408.118 122.72 407.943 122.986 408.132 C 123.099 408.213 123.167 408.347 123.166 408.491 C 122.79 413.722 126.175 418.47 131.14 419.677 C 131.661 419.804 131.401 420.619 130.883 420.491 Z" fill="#fff" style="" transform="matrix(0.999995, 0.00305, -0.00305, 0.999995, 1.264143, -0.385007)"/>
  <path d="M 134.417 443.792 C 139.056 440.934 142.473 436.375 143.983 431.028 C 144.131 430.498 144.923 430.768 144.776 431.297 C 143.193 436.86 139.629 441.595 134.794 444.559 C 134.335 444.841 133.957 444.072 134.417 443.792 Z" fill="#fff" style="" transform="matrix(0.999995, 0.00305, -0.00305, 0.999995, 1.335575, -0.423443)"/>
  <path d="M 138.985 397.004 C 140.911 397.944 143.163 397.824 144.977 396.69 C 145.434 396.403 145.809 397.171 145.355 397.455 C 143.344 398.701 140.864 398.837 138.728 397.818 C 138.514 397.739 138.399 397.501 138.462 397.276 C 138.534 397.051 138.768 396.931 138.985 397.004 Z" fill="#fff" style="" transform="matrix(0.999995, 0.00305, -0.00305, 0.999995, 1.213224, -0.431259)"/>
  <path d="M 203.409 416.795 C 203.127 416.983 202.848 417.172 202.566 417.367 C 198.806 419.918 195.258 422.78 191.952 425.924 C 191.693 426.163 191.433 426.408 191.179 426.655 C 183.295 434.317 176.865 443.426 172.22 453.517 C 170.373 457.536 168.828 461.693 167.597 465.954 C 165.898 471.839 164.508 478.361 161.116 483.177 C 160.767 483.681 160.39 484.165 159.983 484.623 L 129.157 484.623 C 129.087 484.586 129.016 484.557 128.948 484.521 L 127.717 484.578 C 127.765 484.354 127.819 484.124 127.869 483.899 C 127.896 483.768 127.932 483.638 127.958 483.508 C 127.978 483.421 127.998 483.334 128.014 483.254 C 128.02 483.226 128.027 483.196 128.036 483.177 C 128.047 483.096 128.069 483.024 128.084 482.95 C 128.387 481.654 128.7 480.358 129.023 479.063 C 129.023 479.056 129.023 479.056 129.03 479.05 C 131.402 469.151 134.906 459.582 139.47 450.544 C 139.609 450.275 139.749 450 139.903 449.732 C 142.018 445.731 144.447 441.916 147.167 438.324 C 148.662 436.362 150.253 434.481 151.933 432.686 C 156.287 428.054 161.321 424.161 166.855 421.146 C 177.887 415.137 190.678 412.837 202.506 416.507 C 202.81 416.6 203.105 416.694 203.409 416.795 Z" style="fill: rgba(202, 139, 4, 0.82);" transform="matrix(0.999995, 0.00305, -0.00305, 0.999995, 1.372303, -0.502876)"/>
  <path d="M 203.337 417.199 C 188 420.337 174.033 428.374 163.419 440.166 C 161.09 442.664 159.159 445.524 157.698 448.644 C 156.372 451.729 155.872 455.129 156.255 458.488 C 156.547 461.626 157.202 464.804 156.749 467.959 C 156.235 471.219 154.393 474.09 151.686 475.854 C 148.407 478.116 144.526 479.027 140.702 479.783 C 136.457 480.623 132.034 481.424 128.498 484.157 C 128.072 484.488 127.593 483.78 128.021 483.45 C 134.173 478.698 142.442 479.696 149.182 476.34 C 152.324 474.776 155.023 472.224 155.79 468.595 C 156.46 465.424 155.787 462.147 155.465 458.971 C 155.045 455.7 155.409 452.376 156.527 449.289 C 157.83 446.104 159.65 443.171 161.911 440.617 C 166.91 434.783 172.771 429.799 179.282 425.846 C 186.687 421.291 194.8 418.078 203.269 416.344 C 203.794 416.236 203.86 417.093 203.337 417.199 Z" fill="#fff" style="" transform="matrix(0.999995, 0.00305, -0.00305, 0.999995, 1.374153, -0.503522)"/>
  <path d="M 166.685 436.16 C 163.2 431.805 163.285 425.502 166.885 421.274 C 167.238 420.862 167.88 421.41 167.526 421.823 C 164.166 425.757 164.099 431.634 167.368 435.673 C 167.712 436.098 167.026 436.583 166.685 436.16 Z" fill="#fff" style="" transform="matrix(0.999995, 0.00305, -0.00305, 0.999995, 1.308385, -0.503934)"/>
  <path d="M 155.885 456.907 C 161.271 457.508 166.672 455.996 171.011 452.674 C 171.441 452.346 171.916 453.051 171.489 453.38 C 166.969 456.828 161.344 458.388 155.739 457.751 C 155.206 457.69 155.353 456.846 155.885 456.907 Z" fill="#fff" style="" transform="matrix(0.999995, 0.00305, -0.00305, 0.999995, 1.389243, -0.496652)"/>
  <path d="M 186.913 422.491 C 187.905 424.432 189.776 425.735 191.893 425.956 C 192.429 426.009 192.279 426.852 191.747 426.799 C 189.411 426.544 187.344 425.115 186.228 422.98 C 186.106 422.783 186.152 422.522 186.332 422.384 C 186.521 422.25 186.78 422.299 186.913 422.492 L 186.913 422.491 Z" fill="#fff" style="" transform="matrix(0.999995, 0.00305, -0.00305, 0.999995, 1.295773, -0.575067)"/>
  <path d="M 144.05 149.317 L 42.067 149.317 C 35.504 149.31 30.167 143.835 30.134 137.081 L 29.913 79.909 C 29.894 73.156 35.191 67.683 41.754 67.676 L 143.735 67.676 C 150.297 67.683 155.634 73.156 155.669 79.909 L 155.889 137.081 C 155.909 143.835 150.61 149.31 144.05 149.317 Z" fill="#e6e6e6" style="" transform="matrix(0.999995, 0.00305, -0.00305, 0.999995, 0.331347, -0.282844)"/>
  <path d="M 299.744 149.793 L 197.763 149.793 C 191.202 149.785 185.862 144.312 185.831 137.557 L 185.609 80.386 C 185.589 73.631 190.886 68.157 197.447 68.15 L 299.429 68.15 C 305.99 68.157 311.33 73.631 311.363 80.386 L 311.583 137.557 C 311.602 144.312 306.306 149.785 299.744 149.793 Z" style="fill: rgb(202, 138, 4);" transform="matrix(0.999995, 0.00305, -0.00305, 0.999995, 0.333519, -0.757711)"/>
  <path d="M 455.441 150.267 L 353.457 150.267 C 346.898 150.259 341.558 144.785 341.525 138.031 L 341.304 80.861 C 341.286 74.106 346.581 68.632 353.144 68.625 L 455.125 68.625 C 461.685 68.632 467.025 74.106 467.057 80.861 L 467.279 138.031 C 467.297 144.785 462.002 150.259 455.441 150.267 Z" fill="#e6e6e6" style="" transform="matrix(0.999995, 0.00305, -0.00305, 0.999995, 0.335691, -1.232581)"/>
  <path d="M 144.153 276.705 L 42.171 276.705 C 35.608 276.697 30.27 271.223 30.237 264.469 L 30.017 207.297 C 29.998 200.543 35.294 195.071 41.857 195.063 L 143.837 195.063 C 150.399 195.071 155.737 200.543 155.772 207.297 L 155.991 264.469 C 156.011 271.223 150.713 276.697 144.153 276.705 Z" fill="#f2f2f2" style="" transform="matrix(0.999995, 0.00305, -0.00305, 0.999995, 0.719879, -0.282565)"/>
  <path d="M 299.848 277.181 L 197.867 277.181 C 191.306 277.172 185.966 271.697 185.933 264.943 L 185.712 207.773 C 185.693 201.017 190.99 195.544 197.552 195.538 L 299.533 195.538 C 306.094 195.544 311.434 201.017 311.466 207.773 L 311.687 264.943 C 311.706 271.697 306.41 277.172 299.848 277.181 Z" fill="#e6e6e6" style="" transform="matrix(0.999995, 0.00305, -0.00305, 0.999995, 0.722054, -0.757434)"/>
  <g id="e3e4f7c8-e232-44d3-85d4-7e764218aef0" data-name="aa405d94-515b-444f-88dd-2c52df39214d" transform="matrix(0.798442, 0.002436, 0.000664, 0.821846, -64.026367, -1.102859)" style="">
    <circle id="fcc64bf3-a6e1-406f-af2a-c5c9529d985b" data-name="ede3a9f0-5e02-4455-ac7e-751a5f8c3692" cx="464.31155" cy="327.43306" r="22.81223" style="fill: rgb(202, 138, 4);"/>
    <path id="a515bf60-7ad9-4961-925b-281b4504c434-404" data-name="ba039ca8-d148-45ed-9781-bacb7304e881" d="M672.25828,479.82985h-7.75611v-7.75613a1.82507,1.82507,0,0,0-1.82507-1.82511h0a1.82508,1.82508,0,0,0-1.82507,1.82511v7.75613h-7.75611a1.82507,1.82507,0,0,0-1.82507,1.8251h0a1.82508,1.82508,0,0,0,1.82507,1.82511h7.75617v7.75613a1.82507,1.82507,0,0,0,1.82507,1.8251h0a1.82508,1.82508,0,0,0,1.82508-1.82507V483.48h7.756a1.82508,1.82508,0,0,0,1.82507-1.82511h0a1.82507,1.82507,0,0,0-1.82507-1.8251h0Z" transform="translate(-198.47381 -154.31245)" fill="#fff"/>
  </g>
  <g id="e103fff6-fe82-4519-942e-bf1bf1b0aca3" data-name="bbf41f8a-587e-4352-8304-6d86282586e3" transform="matrix(0.798442, 0.002436, 0.000664, 0.821846, -64.026367, -1.102859)" style="">
    <circle id="add300b1-303e-47da-8a54-54886e1d1e76" data-name="e4c91425-bc08-43ed-9b2d-9a6452dd6ab0" cx="662.31155" cy="176.43306" r="22.81224" style="fill: rgb(202, 138, 4);"/>
    <path id="ac71a829-1528-4702-ba68-9cb7b8b12af7-405" data-name="b08e8960-896e-4763-a2dc-6c3da3e5d175" d="M870.25828,328.82985h-7.75611v-7.75613a1.82507,1.82507,0,0,0-1.82507-1.82511h0a1.82508,1.82508,0,0,0-1.82507,1.82511v7.75613h-7.75611a1.82507,1.82507,0,0,0-1.82507,1.8251h0a1.82508,1.82508,0,0,0,1.82507,1.82511h7.75617v7.75613a1.82507,1.82507,0,0,0,1.82507,1.8251h0a1.82508,1.82508,0,0,0,1.82508-1.82507V332.48h7.756a1.82508,1.82508,0,0,0,1.82507-1.82511h0a1.82507,1.82507,0,0,0-1.82507-1.8251h0Z" transform="translate(-198.47381 -154.31245)" fill="#fff"/>
  </g>
  <g id="eec1f109-4866-4d4c-80db-d160015753dd" data-name="b77ad267-181d-433f-b31f-af61e58bf4a6" transform="matrix(0.798442, 0.002436, 0.000664, 0.821846, -64.026367, -1.102859)" style="">
    <circle id="ad2802dd-75a3-400f-a980-dd7e255328e3" data-name="e8aef769-5476-47e9-8295-ae809767f9aa" cx="269.31155" cy="174.43306" r="22.81223" style="fill: rgb(202, 138, 4);"/>
    <path id="a152d324-d2c4-475a-92fe-001d0469b5e0-406" data-name="efbebd4e-dbd2-4103-8d2c-f0ca8346a3bf" d="M477.25828,326.82985h-7.75614v-7.75613a1.82509,1.82509,0,0,0-1.82507-1.82511h0a1.8251,1.8251,0,0,0-1.8251,1.82511h0v7.75613h-7.75614a1.8251,1.8251,0,0,0-1.8251,1.8251h0a1.8251,1.8251,0,0,0,1.82507,1.82511h7.75614v7.75613a1.82509,1.82509,0,0,0,1.8251,1.8251h0a1.82508,1.82508,0,0,0,1.8251-1.82507V330.48h7.75614a1.8251,1.8251,0,0,0,1.8251-1.82511h0a1.8251,1.8251,0,0,0-1.8251-1.8251h0Z" transform="translate(-198.47381 -154.31245)" fill="#fff"/>
  </g>
  <path d="M 287.366 117.384 C 288.799 121.79 286.02 126.441 281.558 127.102 L 273.364 186.276 L 259.523 179.329 L 273.192 120.264 C 272.739 114.511 278.506 110.44 283.569 112.933 C 285.371 113.82 286.745 115.429 287.366 117.384 Z" style="fill: rgb(255, 182, 182);" transform="matrix(0.999995, 0.00305, -0.00305, 0.999995, 0.456426, -0.83389)"/>
  <path d="M 187.132 306.622 C 189.736 302.846 188.383 297.548 184.302 295.559 L 189.74 232.617 L 177.865 238.897 L 174.383 299.548 C 172.34 304.912 176.712 310.563 182.254 309.721 C 184.228 309.422 185.99 308.301 187.132 306.622 Z" style="fill: rgb(255, 182, 182);" transform="matrix(0.999995, 0.00305, -0.00305, 0.999995, 0.828039, -0.553246)"/>
  <polygon points="195.218 274.904 246.278 272.881 249.014 218.294 190.088 218.294 195.218 274.904" style="fill: rgb(255, 182, 182);" transform="matrix(0.999995, 0.00305, -0.00305, 0.999995, 0.753148, -0.668484)"/>
  <polygon points="185.862 467.599 194.588 467.598 198.606 432.952 185.727 432.952 185.862 467.599" style="fill: rgb(255, 182, 182);" transform="matrix(0.999995, 0.00305, -0.00305, 0.999995, 1.374235, -0.584014)"/>
  <path d="M 183.606 463.182 L 197.4 462.336 L 197.421 468.42 L 210.575 477.742 C 212.919 479.405 212.647 483.05 210.084 484.303 C 209.589 484.544 209.05 484.669 208.501 484.669 L 192.077 484.669 L 189.224 478.652 L 188.144 484.669 L 181.95 484.669 L 183.606 463.182 Z" fill="#2f2e41" style="" transform="matrix(0.999995, 0.00305, -0.00305, 0.999995, 1.4451, -0.598847)"/>
  <polygon points="224.676 467.719 233.402 467.717 237.42 433.071 224.541 433.071 224.676 467.719" style="fill: rgb(255, 182, 182);" transform="matrix(0.999995, 0.00305, -0.00305, 0.999995, 1.37478, -0.702396)"/>
  <path d="M 194.125 262.096 C 194.125 262.096 178.895 274.793 187.352 320.141 C 186.092 320.295 187.53 322.855 187.53 322.855 L 188.867 359.805 L 189.808 364.039 L 186.764 370.873 L 188.057 378.296 L 184.416 445.68 L 198.839 447.599 L 212.368 377.625 L 214.964 369.758 L 217.574 362.863 L 216.123 355.511 L 217.245 344.096 L 225.052 305.61 L 227.256 372.358 L 224.562 378.73 L 226.102 385.726 L 222.748 389.439 L 221.658 451.891 L 237.033 452.63 L 249.511 389.673 L 248.494 381.64 L 250.163 375.701 L 250.109 361.827 L 252.983 355.278 L 259.162 319.571 C 259.162 319.571 260.963 291.661 246.928 258.821 L 194.125 262.096 Z" style="fill: rgb(19, 19, 24);" transform="matrix(0.999995, 0.00305, -0.00305, 0.999995, 1.085995, -0.674917)"/>
  <path d="M 200.436 172.831 C 200.436 172.831 181.15 176.759 177.89 193.701 C 174.63 210.643 172.638 248.98 172.638 248.98 L 173.388 254.319 L 192.074 258.776 L 203.783 205.058 L 200.436 172.831 Z" fill="#3f3d56" style="" transform="matrix(0.999995, 0.00305, -0.00305, 0.999995, 0.659076, -0.573039)"/>
  <path d="M 244.601 178.775 C 244.601 178.775 246.545 175.954 257.499 175.518 C 257.95 175.499 257.388 174.579 257.388 174.579 L 262.555 148.073 L 280.151 158.079 L 277.294 185.867 L 248.572 219.646 L 244.601 178.775 Z" fill="#3f3d56" style="" transform="matrix(0.999995, 0.00305, -0.00305, 0.999995, 0.561992, -0.799392)"/>
  <path d="M 233.88 257.664 C 225.612 257.664 213.168 256.726 194.424 253.863 C 191.947 253.479 189.993 251.482 189.602 248.934 C 188.346 247.571 188.047 245.548 188.857 243.871 L 188.875 243.835 L 188.447 243.321 C 187.093 241.689 186.958 239.332 188.115 237.558 L 182.151 194.844 C 180.901 186.08 186.026 177.707 194.234 175.103 L 196.373 174.415 L 204.427 163.513 L 204.587 163.514 L 230.586 163.871 L 239.067 174.897 L 252.717 178.208 L 252.754 178.423 L 255.994 197.256 C 257.677 207.047 253.916 210.901 249.128 219.514 L 250.636 243.704 L 251.283 244.905 C 252.023 246.276 251.712 247.991 250.542 248.988 C 250.978 250.254 251.011 251.625 250.641 252.909 L 250.31 254.045 C 250.31 254.078 250.223 254.538 249.506 255.101 C 248.213 256.116 244.491 257.664 233.88 257.664 Z" fill="#3f3d56" style="" transform="matrix(0.999995, 0.00305, -0.00305, 0.999995, 0.643315, -0.667529)"/>
  <path d="M 222.423 463.302 L 236.216 462.454 L 236.237 468.539 L 249.391 477.862 C 251.735 479.523 251.462 483.168 248.901 484.422 C 248.407 484.663 247.867 484.79 247.317 484.79 L 230.894 484.79 L 228.041 478.77 L 226.96 484.79 L 220.766 484.79 L 222.423 463.302 Z" fill="#2f2e41" style="" transform="matrix(0.999995, 0.00305, -0.00305, 0.999995, 1.445645, -0.717235)"/>
  <circle cx="549.754" cy="320.563" r="25.527" transform="matrix(0.12724, -0.810847, 0.788238, 0.134047, -106.06971, 539.178833)" style="fill: rgb(255, 182, 182);"/>
  <path d="M 228.403 115.824 C 220.912 110.535 214.331 109.73 208.933 111.23 C 208.229 110.114 207.243 109.217 206.082 108.633 C 201.826 97.702 188.973 91.138 177.98 94.329 C 166.915 97.54 159.319 110.17 161.447 121.821 C 162.767 129.044 167.206 135.296 169.011 142.409 C 172.501 156.175 164.176 171.945 151.073 176.383 C 163.505 178.95 177.149 171.14 181.559 158.932 C 183.699 153.003 183.805 146.528 184.056 140.201 C 184.111 135.833 184.615 131.485 185.556 127.23 C 186.026 125.321 186.69 123.469 187.541 121.707 C 189.394 117.833 192.483 114.735 196.295 112.931 C 195.61 115.139 196.002 117.556 197.343 119.426 C 194.444 123.183 192.875 127.243 192.885 129.677 C 186.876 141.06 195.568 150.841 206.653 157.069 C 211.074 159.566 216.172 160.481 221.142 159.668 L 221.596 157.636 L 222.229 159.467 L 224.347 165.605 C 226.766 166.808 229.163 168.126 231.542 169.559 C 230.624 165.203 229.879 160.854 229.36 156.601 C 228.644 150.813 231.031 142.197 232.758 136.958 C 233.829 133.729 234.371 130.339 234.365 126.921 L 234.365 126.774 L 236.086 132.396 L 242.269 129.677 C 241.09 122.876 242.212 115.153 228.403 115.824 Z" fill="#2f2e41" style="" transform="matrix(0.999995, 0.00305, -0.00305, 0.999995, 0.413263, -0.599218)"/>
  <path d="M 483.441 485.893 L 30.486 485.893 C 29.756 485.891 29.299 485.074 29.666 484.422 C 29.833 484.123 30.144 483.938 30.481 483.938 L 483.432 483.938 C 484.164 483.942 484.62 484.759 484.254 485.41 C 484.086 485.708 483.776 485.892 483.441 485.893 Z" fill="#ccc" style="" transform="matrix(0.999995, 0.00305, -0.00305, 0.999995, 1.480188, -0.781472)"/>
  <circle id="aeef577c-289f-4c95-850d-f6939249b5af" data-name="e4c91425-bc08-43ed-9b2d-9a6452dd6ab0" cx="306.229" cy="258.124" r="22.812" fill="#e6e6e6" style="" transform="matrix(0.798437, 0.002436, 0.000664, 0.821841, -95.535545, 58.227623)"/>
  <path d="M 423.263 261.073 L 359.376 261.073 C 355.266 261.069 351.921 257.638 351.901 253.408 L 351.762 217.594 C 351.751 213.363 355.069 209.935 359.179 209.93 L 423.065 209.93 C 427.175 209.935 430.519 213.363 430.54 217.594 L 430.679 253.408 C 430.689 257.638 427.371 261.069 423.263 261.073 Z" fill="#f2f2f2" style="" transform="matrix(0.999995, 0.00305, -0.00305, 0.999995, 0.7201, -1.192128)"/>
  <g id="a3c861bb-19cc-462b-bc3a-1f29faec5e60" data-name="bc9af32e-f7cd-4c85-a4cc-5543d455b8de" transform="matrix(0.798442, 0.002436, 0.000664, 0.821846, -64.026367, -1.102859)" style="">
    <circle id="a24c8b8a-c30a-477e-8412-dbddb638fe0a" data-name="b56288f5-6382-4006-aaf1-aded98dde780" cx="611.11771" cy="287.50408" r="12.11453" style="fill: rgb(202, 138, 4);"/>
    <path id="ac585bde-7a48-4e1f-a3d4-d671a5b024fe-407" data-name="b9aaef6b-2cfc-46ac-8dc0-30fdc28925de" d="M814.62215,440.79921h-4.119v-4.11893a.96921.96921,0,0,0-.96923-.96923h0a.96924.96924,0,0,0-.96923.96921v4.119H804.4458a.96923.96923,0,0,0-.96923.96921v0h0a.96921.96921,0,0,0,.96923.96923h4.11894v4.11892a.96921.96921,0,0,0,.96923.96923h0a.96923.96923,0,0,0,.96923-.96921v-4.11894h4.119a.96924.96924,0,0,0,.96923-.96921v0h0a.96921.96921,0,0,0-.96923-.96923Z" transform="translate(-198.47381 -154.31245)" fill="#fff"/>
  </g>
  <path d="M 449.268 251.005 L 396.62 251.005 C 391.967 251 388.182 247.119 388.158 242.331 L 388.033 209.984 C 388.031 208.754 389.324 207.988 390.36 208.605 C 390.84 208.892 391.136 209.416 391.138 209.984 L 391.171 218.647 L 452.348 224.369 C 454.889 224.415 456.935 226.546 456.947 229.162 C 456.947 229.262 456.939 229.36 456.922 229.458 L 453.905 246.374 C 453.828 248.955 451.777 251.003 449.268 251.005 Z M 391.184 221.856 L 391.262 242.331 C 391.278 245.354 393.669 247.806 396.608 247.809 L 449.255 247.809 C 450.114 247.809 450.804 247.093 450.803 246.209 C 450.802 246.112 450.81 246.013 450.829 245.916 L 453.836 229.039 C 453.771 228.208 453.093 227.565 452.283 227.564 C 452.236 227.564 452.19 227.563 452.143 227.558 L 391.184 221.856 Z" style="fill: rgb(202, 138, 4);" transform="matrix(0.999995, 0.00305, -0.00305, 0.999995, 0.702538, -1.287527)"/>
  <circle cx="598.603" cy="247.556" r="3.241" style="fill: rgb(202, 138, 4);" transform="matrix(0.798437, 0.002436, 0.000664, 0.821841, -95.53389, 58.22757)"/>
  <circle cx="679.469" cy="247.556" r="3.241" style="fill: rgb(202, 138, 4);" transform="matrix(0.798437, 0.002436, 0.000664, 0.821841, -95.533432, 58.227566)"/>
  <path d="M 449.734 260.571 L 380.508 260.571 C 379.314 260.571 378.562 259.239 379.155 258.175 C 379.431 257.68 379.941 257.373 380.498 257.373 L 449.722 257.373 C 450.917 257.373 451.669 258.707 451.076 259.773 C 450.801 260.267 450.289 260.571 449.734 260.571 Z" style="fill: rgb(202, 138, 4);" transform="matrix(0.999995, 0.00305, -0.00305, 0.999995, 0.791796, -1.264898)"/>
  <path d="M 393.792 210.94 L 380.336 210.94 C 379.142 210.939 378.394 209.604 378.986 208.539 C 379.262 208.048 379.772 207.745 380.325 207.744 L 393.781 207.744 C 394.977 207.746 395.725 209.081 395.13 210.145 C 394.854 210.636 394.344 210.94 393.792 210.94 Z" style="fill: rgb(202, 138, 4);" transform="matrix(0.999995, 0.00305, -0.00305, 0.999995, 0.640294, -1.179556)"/>
  <path d="M 404.642 259.71 C 404.271 259.71 403.912 259.574 403.629 259.324 L 393.388 250.296 C 392.476 249.497 392.744 247.986 393.87 247.576 C 394.394 247.384 394.981 247.498 395.404 247.872 L 405.644 256.901 C 406.554 257.702 406.282 259.213 405.157 259.62 C 404.992 259.68 404.818 259.71 404.642 259.71 Z" style="fill: rgb(202, 138, 4);" transform="matrix(0.999995, 0.00305, -0.00305, 0.999995, 0.77533, -1.21734)"/>
  <path d="M 406.81 249.975 C 405.951 249.975 405.254 249.259 405.251 248.376 L 405.152 222.722 C 405.147 221.491 406.438 220.722 407.475 221.338 C 407.957 221.623 408.255 222.15 408.256 222.722 L 408.357 248.376 C 408.359 249.259 407.667 249.975 406.81 249.975 Z" style="fill: rgb(202, 138, 4);" transform="matrix(0.999995, 0.00305, -0.00305, 0.999995, 0.720314, -1.239506)"/>
  <path d="M 439.607 250.076 C 438.75 250.076 438.053 249.36 438.049 248.476 L 437.959 224.951 C 437.956 223.721 439.249 222.954 440.286 223.571 C 440.764 223.858 441.061 224.383 441.063 224.951 L 441.154 248.476 C 441.158 249.36 440.466 250.076 439.609 250.076 L 439.607 250.076 Z" style="fill: rgb(202, 138, 4);" transform="matrix(0.999995, 0.00305, -0.00305, 0.999995, 0.724024, -1.339547)"/>
</svg>