<?xml version="1.0" encoding="utf-8"?>
<svg viewBox="0 0 500 500" xmlns="http://www.w3.org/2000/svg">
  <path d="M 442.129 183.419 L 45.327 183.419 C 37.966 183.411 32.001 177.522 31.992 170.256 L 31.992 16.744 C 32.001 9.477 37.966 3.59 45.327 3.581 L 442.129 3.581 C 449.492 3.59 455.456 9.477 455.466 16.744 L 455.466 170.256 C 455.456 177.522 449.492 183.411 442.129 183.419 Z" fill="#f2f2f2" style=""/>
  <path d="M 349.586 175.025 L 108.314 175.025 C 70.879 174.983 40.542 145.041 40.499 108.092 L 40.499 78.917 C 40.542 41.968 70.879 12.024 108.314 11.983 L 379.147 11.983 C 416.582 12.024 446.919 41.968 446.961 78.917 C 446.9 131.971 403.339 174.965 349.586 175.025 Z" fill="#fff" style=""/>
  <path d="M 287.347 55.928 L 127.864 55.928 C 125.217 55.928 123.562 53.1 124.886 50.836 C 125.5 49.787 126.636 49.139 127.864 49.139 L 287.347 49.139 C 289.997 49.139 291.651 51.968 290.327 54.231 C 289.712 55.28 288.577 55.928 287.347 55.928 Z" fill="#e6e6e6" style=""/>
  <path d="M 368.082 92.147 L 127.864 92.147 C 125.217 92.147 123.562 89.318 124.886 87.054 C 125.5 86.004 126.636 85.357 127.864 85.357 L 368.082 85.357 C 370.729 85.357 372.383 88.185 371.06 90.449 C 370.445 91.5 369.31 92.147 368.082 92.147 Z" fill="#e6e6e6" style=""/>
  <path d="M 368.082 128.364 L 127.864 128.364 C 125.217 128.364 123.562 125.536 124.886 123.273 C 125.5 122.223 126.636 121.575 127.864 121.575 L 368.082 121.575 C 370.729 121.575 372.383 124.404 371.06 126.667 C 370.445 127.717 369.31 128.364 368.082 128.364 Z" fill="#e6e6e6" style=""/>
  <path d="M 368.082 128.364 L 127.864 128.364 C 125.217 128.364 123.562 125.536 124.886 123.273 C 125.5 122.223 126.636 121.575 127.864 121.575 L 368.082 121.575 C 370.729 121.575 372.383 124.404 371.06 126.667 C 370.445 127.717 369.31 128.364 368.082 128.364 Z" fill="#e6e6e6" style=""/>
  <path d="M 270.519 96.303 C 270.681 100.657 274.793 103.808 279.107 102.886 L 292.222 124.123 L 297.805 112.432 L 284.493 94.057 C 282.979 88.849 276.322 87.214 272.511 91.111 C 271.153 92.501 270.433 94.376 270.519 96.303 Z" fill="#ffb6b6" style=""/>
  <path d="M 368.947 157.168 L 323.745 132.97 L 309.488 119.766 C 309.488 119.766 303.29 118.129 305.572 116.139 C 307.853 114.151 301.352 112.232 301.352 112.232 L 293.7 105.145 L 282.822 112.741 L 285.971 117.556 C 285.971 117.556 285.754 125.528 290.179 123.994 C 294.603 122.461 293.498 129.073 293.498 129.073 L 319.909 169.481 L 368.947 157.168 Z" fill="#3f3d56" style=""/>
  <circle cx="260.85489" cy="113.24865" r="56.58599" transform="matrix(0.78023, 0, 0, 0.770092, 31.99271, 3.580938)" style="fill: rgb(202, 138, 4);"/>
  <polygon points="369.087 474.57 359.905 474.57 355.538 439.622 369.087 439.622 369.087 474.57" fill="#ffb6b6" style=""/>
  <path d="M 373.931 490.269 L 367.349 490.269 L 366.172 484.134 L 363.164 490.269 L 345.704 490.269 C 342.682 490.269 340.792 487.041 342.303 484.458 C 342.594 483.961 342.993 483.534 343.473 483.208 L 357.417 473.702 L 357.417 467.5 L 372.083 468.364 L 373.931 490.269 Z" fill="#2f2e41" style=""/>
  <polygon points="295.665 474.57 286.485 474.57 282.116 439.622 295.665 439.622 295.665 474.57" fill="#ffb6b6" style=""/>
  <path d="M 300.51 490.269 L 293.926 490.269 L 292.753 484.134 L 289.743 490.269 L 272.281 490.269 C 269.261 490.269 267.372 487.041 268.882 484.458 C 269.173 483.961 269.573 483.534 270.051 483.208 L 283.994 473.702 L 283.994 467.5 L 298.662 468.364 L 300.51 490.269 Z" fill="#2f2e41" style=""/>
  <rect x="313.011" y="210.259" width="46.335" height="52.064" fill="#ffb6b6" style=""/>
  <path d="M 314.081 235.939 L 306.239 245.085 L 292.696 273.228 L 258.571 353.372 L 251.351 370.32 L 257.181 400.283 C 257.181 400.283 258.124 421.391 258.124 424.846 C 258.124 431.883 264.086 435.78 264.086 435.78 L 268.459 458.267 L 310.874 456.507 C 310.874 456.507 309.393 431.722 300.51 425.471 C 291.627 419.218 287.544 386.636 287.544 386.636 L 282.716 372.179 L 329.762 317.135 L 330.066 336.375 L 330.214 345.69 C 330.214 345.69 323.324 406.261 331.355 418.016 C 339.386 429.771 331.519 428.388 331.519 428.388 L 331.902 452.638 L 382.157 452.989 L 371.069 383.177 C 371.069 383.177 365.44 378.788 368.452 374.377 C 371.464 369.969 365.532 364.567 365.532 364.567 L 368.192 310.066 C 368.192 310.066 365.246 300.652 368.712 299.429 C 372.177 298.204 369.167 290.109 369.167 290.109 L 369.681 279.559 L 359.345 246.844 L 314.081 235.939 Z" style="fill: rgb(34, 34, 40);"/>
  <path d="M 360.058 210.259 L 365.049 195.484 L 368.613 190.56 L 370.038 176.488 C 370.038 138.495 361.453 144.822 361.453 144.822 L 356.494 131.46 L 333.684 130.756 L 319.071 144.476 L 306.952 148.696 L 302.206 173.034 L 310.874 199.003 L 313.011 213.074 C 308.933 220.507 309.278 216.99 312.654 222.57 L 352.93 233.478 C 367.186 238.402 367.186 225.738 364.327 222.57 C 361.47 219.405 360.058 210.259 360.058 210.259 Z" fill="#3f3d56" style=""/>
  <circle cx="397.51079" cy="131.90749" r="27.10245" fill="#ffb6b6" transform="matrix(0.78023, 0, 0, 0.770092, 31.99271, 3.580938)" style=""/>
  <path fill="#2f2e41" style=""/>
  <path d="M 370.374 133.022 C 371.224 134.44 370.518 136.271 368.926 136.771 C 366.089 137.7 364.343 140.409 362.304 142.576 C 360.272 144.736 357 146.53 354.406 145.06 C 351.818 143.596 351.64 139.86 349.474 137.834 C 347.362 135.864 343.856 136.103 341.376 137.602 L 341.301 137.646 C 339.615 138.732 337.371 137.607 337.262 135.625 C 337.251 135.422 337.264 135.221 337.3 135.022 C 338.169 130.459 339.038 125.897 339.906 121.335 C 337.626 126.76 334.314 131.703 330.148 135.899 C 329.001 137.206 327.548 138.216 325.914 138.84 C 324.431 139.304 322.991 137.792 321.551 138.066 C 325.129 134.977 337.162 115.178 335.009 101.945 C 332.479 102.227 329.949 102.508 327.417 102.789 C 327.145 101.608 326.559 100.517 325.722 99.629 C 325.823 100.782 325.676 101.939 325.286 103.028 C 324.231 103.149 323.17 103.261 322.115 103.381 C 320.646 103.542 319.049 103.682 317.788 102.924 C 315.684 101.657 315.619 98.659 316.219 96.294 C 317.972 89.422 323.29 83.674 329.799 80.663 C 336.307 77.658 338.231 84.348 345.089 82.21 C 358.633 77.989 369.012 85.207 372.668 98.603 C 375.74 109.839 373.509 121.764 370.374 133.022 Z" fill="#2f2e41" style=""/>
  <path d="M 428.916 490.722 L 403.022 490.722 L 402.911 490.523 C 402.58 489.932 402.26 489.303 401.962 488.658 C 399.295 483.022 398.167 476.577 397.172 470.89 L 396.423 466.603 C 396.072 464.595 398.055 462.964 399.993 463.67 C 400.225 463.753 400.445 463.869 400.644 464.013 C 404.579 466.84 408.516 469.663 412.453 472.483 C 413.946 473.554 415.649 474.794 417.279 476.133 C 417.436 475.379 417.601 474.623 417.766 473.877 C 418.205 471.884 420.664 471.108 422.194 472.48 C 422.376 472.644 422.535 472.832 422.667 473.04 L 425.696 477.844 C 427.905 481.352 429.856 484.81 429.458 488.538 C 429.46 488.584 429.457 488.629 429.448 488.674 C 429.369 489.286 429.221 489.888 429.008 490.469 L 428.916 490.722 Z" style="fill: rgb(202, 138, 4);"/>
  <path d="M 454.904 491.275 L 208.853 491.512 C 208.137 491.509 207.695 490.743 208.055 490.132 C 208.221 489.853 208.524 489.68 208.853 489.679 L 454.904 489.442 C 455.62 489.445 456.063 490.211 455.703 490.822 C 455.537 491.101 455.232 491.274 454.904 491.275 Z" fill="#cacaca" style=""/>
  <path d="M 231.506 149.443 L 204.441 126.885 C 202.515 125.275 202.271 122.431 203.898 120.527 L 208.88 114.704 C 210.51 112.803 213.392 112.563 215.321 114.168 L 242.385 136.727 C 244.312 138.336 244.555 141.18 242.929 143.085 L 237.947 148.907 C 236.318 150.809 233.436 151.048 231.506 149.443 Z" fill="#3f3d56" style=""/>
  <path d="M 205.861 120.995 C 204.985 122.022 205.116 123.555 206.154 124.421 L 233.218 146.981 C 234.259 147.847 235.812 147.716 236.691 146.692 L 241.671 140.871 C 242.548 139.844 242.417 138.311 241.379 137.444 L 214.314 114.885 C 213.274 114.02 211.722 114.149 210.843 115.174 L 205.861 120.995 Z" fill="#fff" style=""/>
  <path d="M 221.751 129.766 C 221.56 130.028 221.254 130.188 220.927 130.195 L 216.675 130.29 C 215.874 130.309 215.353 129.464 215.738 128.772 C 215.917 128.449 216.255 128.245 216.628 128.237 L 219.409 128.174 L 216.669 121.039 C 216.387 120.299 217.022 119.536 217.813 119.664 C 218.178 119.723 218.484 119.97 218.615 120.311 L 221.877 128.804 C 221.997 129.116 221.956 129.465 221.767 129.742 L 221.751 129.766 Z" style="fill: rgb(202, 138, 4);"/>
  <path d="M 222.295 131.557 C 226.664 132.192 229.39 136.567 227.992 140.701 L 247.955 155.879 L 235.572 160.084 L 218.513 145.026 C 213.433 142.974 212.51 136.265 216.849 132.949 C 218.395 131.768 220.365 131.265 222.295 131.559 L 222.295 131.557 Z" fill="#ffb6b6" style=""/>
  <path d="M 326.23 139.063 L 275.116 170.08 C 275.116 170.08 254.508 162.555 258.537 159.072 C 262.564 155.586 249.741 153.231 249.741 153.231 L 235.579 143.827 L 227.36 153.254 C 227.36 153.254 228.857 168.568 231.405 165.916 C 233.953 163.264 237.763 170.507 237.763 170.507 C 237.763 170.507 238.888 178.596 246.141 176.56 C 253.394 174.525 272.857 195.859 272.857 195.859 L 335.761 172.702 L 326.23 139.063 Z" fill="#3f3d56" style=""/>
  <path d="M 233.966 108.272 C 232.766 108.272 231.634 107.714 230.914 106.765 L 221.552 94.445 C 219.789 92.126 221.231 88.793 224.149 88.447 C 225.503 88.285 226.84 88.849 227.66 89.926 L 233.784 97.985 L 249.513 74.697 C 251.144 72.284 254.808 72.519 256.111 75.118 C 256.715 76.324 256.622 77.757 255.865 78.877 L 237.143 106.596 C 236.456 107.612 235.312 108.237 234.073 108.271 C 234.037 108.272 234.003 108.272 233.966 108.272 Z" fill="#fff" style=""/>
</svg>