<?xml version="1.0" encoding="utf-8"?>
<svg viewBox="0 0 500 500" xmlns="http://www.w3.org/2000/svg">
  <path fill="#2f2e41" style=""/>
  <path d="M 438.285 414.091 L 417.595 432.973 L 434.037 405.622 C 421.083 382.334 399.897 362.208 399.897 362.208 C 399.897 362.208 355.941 403.955 355.941 436.771 C 355.941 469.587 375.621 481.046 399.897 481.046 C 424.172 481.046 443.851 469.587 443.851 436.771 C 443.851 429.466 441.67 421.72 438.285 414.091 Z" style="fill: rgba(202, 139, 4, 0.58);"/>
  <path d="M 412.274 433.994 L 412.274 435.612 C 412.177 454.414 408.979 469.084 402.702 479.413 C 402.613 479.566 402.517 479.71 402.427 479.863 L 401.724 479.439 L 401.053 479.022 C 408.017 467.867 410.481 452.1 410.57 435.701 C 410.579 435.171 410.587 434.635 410.579 434.099 C 410.554 427.155 410.126 420.133 409.439 413.311 C 409.391 412.782 409.333 412.246 409.277 411.71 C 408.323 402.709 406.951 394.108 405.546 386.637 C 405.448 386.11 405.344 385.58 405.238 385.06 C 402.806 372.425 400.326 363.271 399.762 361.246 C 399.697 360.997 399.657 360.861 399.648 360.829 L 400.416 360.612 L 400.424 360.605 L 401.199 360.388 C 401.208 360.421 401.344 360.877 401.572 361.726 C 402.435 364.896 404.682 373.505 406.887 384.859 C 406.982 385.373 407.089 385.9 407.185 386.429 C 408.331 392.49 409.456 399.264 410.343 406.376 C 410.57 408.162 410.772 409.924 410.948 411.662 C 411.013 412.198 411.071 412.734 411.119 413.263 C 411.863 420.638 412.247 427.549 412.274 433.994 Z" fill="#fff" style=""/>
  <path d="M 406.887 384.859 C 406.345 384.931 405.796 385.004 405.238 385.06 C 403.725 385.215 402.204 385.292 400.682 385.293 C 394.197 385.301 387.794 383.867 381.943 381.096 C 381.603 381.52 381.264 381.946 380.916 382.377 C 387.072 385.356 393.833 386.901 400.682 386.895 C 402.307 386.893 403.931 386.807 405.546 386.637 C 406.095 386.581 406.643 386.509 407.185 386.429 C 411.652 385.795 415.997 384.49 420.07 382.562 C 419.722 382.121 419.383 381.688 419.052 381.263 C 415.197 383.05 411.098 384.262 406.887 384.859 Z" fill="#fff" style=""/>
  <path d="M 410.948 411.662 C 410.393 411.694 409.835 411.71 409.277 411.71 C 409.108 411.718 408.93 411.718 408.761 411.718 C 394.498 411.718 381.138 404.8 372.992 393.195 C 372.668 393.669 372.345 394.14 372.031 394.621 C 380.519 406.356 394.194 413.318 408.761 413.319 C 408.987 413.319 409.213 413.319 409.439 413.311 C 410.003 413.303 410.562 413.286 411.119 413.263 C 419.744 412.824 428.058 409.934 435.071 404.935 C 434.812 404.462 434.552 403.99 434.286 403.518 C 427.473 408.425 419.361 411.256 410.948 411.662 Z" fill="#fff" style=""/>
  <path d="M 412.274 433.994 C 411.709 434.042 411.143 434.074 410.579 434.099 C 409.972 434.122 409.366 434.139 408.761 434.139 C 389.367 434.117 372.309 421.426 366.869 402.972 C 366.506 403.621 366.143 404.261 365.795 404.91 C 371.915 423.294 389.231 435.72 408.761 435.74 C 409.366 435.74 409.972 435.732 410.57 435.701 C 411.143 435.684 411.709 435.652 412.274 435.612 C 423.695 434.726 434.35 429.571 442.08 421.191 C 441.912 420.598 441.718 420.012 441.524 419.42 C 434.057 427.865 423.564 433.091 412.274 433.994 Z" fill="#fff" style=""/>
  <path id="f3dd3be3-e3f2-4729-8854-c6cb5bd65852-276" data-name="Rectangle 1 - Outline" d="M 363.883 115.887 L 138.845 87.445 C 138.238 87.368 137.628 87.33 137.017 87.328 C 136.415 87.327 135.812 87.364 135.215 87.44 C 134.618 87.516 134.027 87.631 133.447 87.783 C 132.859 87.94 132.281 88.132 131.717 88.362 C 131.166 88.586 130.629 88.845 130.108 89.134 C 129.582 89.425 129.071 89.746 128.584 90.097 C 128.082 90.457 127.604 90.845 127.148 91.258 C 126.676 91.684 126.23 92.135 125.807 92.609 C 125.375 93.095 124.967 93.605 124.586 94.133 C 124.202 94.669 123.841 95.225 123.505 95.803 C 123.167 96.384 122.854 96.988 122.566 97.613 C 122.277 98.24 122.013 98.888 121.776 99.557 C 121.53 100.249 121.315 100.955 121.129 101.679 C 120.944 102.4 120.788 103.136 120.664 103.882 C 120.542 104.628 120.449 105.389 120.384 106.158 C 120.319 106.93 120.287 107.711 120.287 108.501 C 120.289 109.29 120.322 110.076 120.384 110.86 C 120.446 111.645 120.54 112.421 120.664 113.193 C 120.79 113.966 120.946 114.734 121.131 115.492 C 121.317 116.251 121.532 117.002 121.778 117.744 C 122.016 118.46 122.28 119.16 122.568 119.843 C 122.856 120.527 123.169 121.195 123.506 121.84 C 123.842 122.488 124.203 123.116 124.589 123.727 C 124.971 124.339 125.378 124.928 125.809 125.495 C 126.24 126.061 126.686 126.601 127.15 127.115 C 127.612 127.625 128.09 128.108 128.585 128.56 C 129.078 129.013 129.587 129.437 130.109 129.83 C 130.627 130.219 131.166 130.582 131.72 130.917 C 132.277 131.255 132.856 131.562 133.448 131.836 C 134.024 132.101 134.613 132.334 135.218 132.531 C 135.807 132.724 136.41 132.882 137.019 133.003 C 137.623 133.121 138.233 133.204 138.847 133.248 L 363.884 149.566 C 364.538 149.613 365.198 149.549 365.83 149.374 C 366.151 149.284 366.466 149.171 366.769 149.03 C 367.085 148.885 367.388 148.716 367.679 148.524 C 367.973 148.33 368.255 148.119 368.521 147.888 C 368.802 147.647 369.066 147.388 369.314 147.117 C 369.577 146.829 369.826 146.529 370.056 146.215 C 370.296 145.892 370.526 145.548 370.746 145.184 C 370.966 144.818 371.174 144.437 371.37 144.041 C 371.567 143.644 371.751 143.233 371.921 142.805 C 372.094 142.378 372.252 141.936 372.398 141.48 C 372.544 141.024 372.678 140.555 372.798 140.071 C 372.923 139.571 373.032 139.063 373.124 138.544 C 373.216 138.028 373.294 137.501 373.358 136.968 C 373.421 136.434 373.468 135.894 373.499 135.347 C 373.53 134.799 373.545 134.246 373.545 133.686 C 373.543 133.127 373.528 132.57 373.499 132.016 C 373.471 131.461 373.423 130.912 373.358 130.366 C 373.295 129.822 373.217 129.281 373.124 128.745 C 373.031 128.207 372.921 127.676 372.798 127.151 C 372.678 126.644 372.544 126.148 372.398 125.664 C 372.254 125.185 372.096 124.714 371.921 124.251 C 371.75 123.785 371.565 123.337 371.37 122.901 C 371.174 122.464 370.966 122.043 370.746 121.634 C 370.524 121.224 370.294 120.834 370.056 120.466 C 369.818 120.096 369.571 119.745 369.314 119.414 C 369.058 119.084 368.795 118.774 368.521 118.485 C 368.255 118.203 367.973 117.936 367.679 117.682 C 367.389 117.433 367.086 117.204 366.769 116.995 C 366.468 116.796 366.155 116.619 365.83 116.464 C 365.519 116.315 365.198 116.192 364.867 116.094 C 364.545 115.999 364.215 115.93 363.883 115.887" style="fill: rgb(202, 138, 4);"/>
  <path id="f1003c66-3f14-4be1-907c-7cdab0d8529f-277" data-name="Rectangle 3 - Outline" d="M 363.883 180.033 L 138.845 174.689 C 137.624 174.659 136.405 174.783 135.215 175.057 C 134.615 175.195 134.024 175.372 133.447 175.582 C 132.856 175.799 132.277 176.049 131.717 176.334 C 131.164 176.616 130.627 176.926 130.108 177.267 C 129.58 177.615 129.07 177.989 128.584 178.39 C 128.082 178.803 127.604 179.238 127.148 179.699 C 126.684 180.168 126.238 180.664 125.807 181.192 C 125.378 181.72 124.971 182.27 124.586 182.843 C 124.202 183.415 123.841 184.008 123.505 184.624 C 123.167 185.239 122.854 185.874 122.566 186.531 C 122.277 187.187 122.013 187.861 121.776 188.554 C 121.53 189.272 121.314 190.002 121.128 190.743 C 120.943 191.484 120.788 192.234 120.664 192.995 C 120.542 193.755 120.449 194.523 120.384 195.302 C 120.319 196.08 120.287 196.863 120.287 197.652 C 120.289 198.443 120.322 199.225 120.384 200.003 C 120.446 200.78 120.54 201.548 120.664 202.307 C 120.79 203.063 120.946 203.811 121.131 204.55 C 121.317 205.29 121.532 206.019 121.778 206.735 C 122.016 207.43 122.28 208.104 122.568 208.758 C 122.856 209.413 123.169 210.046 123.506 210.659 C 123.842 211.272 124.203 211.863 124.589 212.434 C 124.971 213.002 125.378 213.549 125.809 214.073 C 126.24 214.597 126.686 215.091 127.15 215.556 C 127.605 216.014 128.083 216.448 128.585 216.856 C 129.073 217.255 129.582 217.626 130.109 217.969 C 130.629 218.306 131.166 218.615 131.72 218.892 C 132.279 219.173 132.858 219.421 133.448 219.633 C 134.026 219.841 134.616 220.013 135.218 220.147 C 135.811 220.282 136.413 220.378 137.019 220.436 C 137.626 220.493 138.237 220.514 138.847 220.495 L 363.883 213.708 C 364.212 213.699 364.542 213.66 364.867 213.595 C 365.195 213.53 365.518 213.437 365.83 213.32 C 366.153 213.197 366.468 213.05 366.769 212.879 C 367.085 212.7 367.389 212.5 367.679 212.28 C 367.973 212.056 368.255 211.814 368.521 211.557 C 368.802 211.287 369.066 211.002 369.314 210.704 C 369.569 210.401 369.818 210.075 370.056 209.725 C 370.296 209.378 370.526 209.01 370.746 208.625 C 370.966 208.237 371.174 207.835 371.37 207.417 C 371.567 207.001 371.751 206.571 371.921 206.125 C 372.094 205.674 372.252 205.214 372.398 204.747 C 372.544 204.279 372.678 203.797 372.798 203.301 C 372.923 202.793 373.032 202.275 373.124 201.749 C 373.216 201.22 373.294 200.687 373.358 200.147 C 373.421 199.605 373.468 199.059 373.499 198.509 C 373.53 197.957 373.545 197.402 373.545 196.842 C 373.543 196.289 373.528 195.734 373.499 195.181 C 373.471 194.627 373.423 194.081 373.358 193.542 C 373.295 193.002 373.217 192.468 373.124 191.943 C 373.031 191.418 372.921 190.898 372.798 190.385 C 372.676 189.888 372.544 189.406 372.398 188.933 C 372.252 188.464 372.094 188.007 371.921 187.563 C 371.751 187.12 371.569 186.69 371.372 186.275 C 371.174 185.859 370.966 185.459 370.746 185.073 C 370.526 184.688 370.296 184.321 370.058 183.974 C 369.82 183.628 369.571 183.303 369.316 183 C 369.066 182.704 368.802 182.421 368.521 182.153 C 368.255 181.897 367.975 181.658 367.681 181.435 C 367.391 181.216 367.086 181.019 366.769 180.841 C 366.468 180.673 366.153 180.529 365.83 180.41 C 365.518 180.293 365.195 180.204 364.867 180.139 C 364.542 180.076 364.212 180.04 363.883 180.033" fill="#e4e4e4" style=""/>
  <path id="e5b3fa8a-e15d-46b1-859f-01f7147e98c8-278" data-name="Rectangle 4 - Outline" d="M 363.883 240.169 L 138.845 256.484 C 138.23 256.529 137.621 256.61 137.017 256.73 C 136.408 256.851 135.806 257.007 135.215 257.201 C 134.611 257.398 134.021 257.63 133.447 257.897 C 132.854 258.171 132.276 258.477 131.717 258.815 C 131.162 259.15 130.625 259.513 130.108 259.903 C 129.585 260.298 129.076 260.721 128.584 261.171 C 128.09 261.623 127.612 262.106 127.148 262.617 C 126.684 263.13 126.238 263.671 125.807 264.239 C 125.378 264.807 124.971 265.399 124.586 266.008 C 124.202 266.617 123.841 267.246 123.505 267.893 C 123.167 268.541 122.854 269.206 122.566 269.891 C 122.277 270.574 122.013 271.274 121.776 271.992 C 121.53 272.73 121.315 273.482 121.129 274.242 C 120.944 275.002 120.788 275.767 120.664 276.539 C 120.542 277.312 120.449 278.089 120.384 278.871 C 120.319 279.655 120.287 280.442 120.287 281.232 C 120.289 282.023 120.322 282.802 120.384 283.573 C 120.446 284.344 120.54 285.104 120.664 285.85 C 120.79 286.6 120.946 287.335 121.131 288.057 C 121.317 288.777 121.532 289.484 121.778 290.176 C 122.016 290.847 122.28 291.493 122.568 292.12 C 122.856 292.748 123.169 293.351 123.506 293.931 C 123.842 294.511 124.203 295.068 124.589 295.601 C 124.967 296.129 125.377 296.639 125.809 297.126 C 126.231 297.598 126.678 298.049 127.15 298.475 C 127.605 298.89 128.085 299.277 128.585 299.638 C 129.073 299.988 129.583 300.31 130.109 300.601 C 130.63 300.89 131.167 301.148 131.72 301.372 C 132.282 301.601 132.861 301.794 133.448 301.951 C 134.029 302.103 134.62 302.217 135.218 302.293 C 135.816 302.37 136.416 302.407 137.019 302.406 C 137.629 302.405 138.24 302.366 138.847 302.289 L 363.883 273.854 C 364.215 273.812 364.545 273.743 364.867 273.647 C 365.198 273.548 365.519 273.425 365.83 273.277 C 366.155 273.123 366.468 272.946 366.769 272.746 C 367.086 272.537 367.389 272.307 367.679 272.058 C 367.973 271.806 368.255 271.538 368.521 271.256 C 368.792 270.966 369.055 270.656 369.314 270.326 C 369.569 269.995 369.818 269.646 370.056 269.275 C 370.296 268.905 370.526 268.516 370.746 268.106 C 370.966 267.701 371.174 267.279 371.37 266.841 C 371.567 266.402 371.751 265.952 371.921 265.491 C 372.094 265.027 372.252 264.554 372.398 264.07 C 372.544 263.585 372.678 263.089 372.798 262.58 C 372.923 262.055 373.032 261.525 373.124 260.987 C 373.216 260.451 373.294 259.91 373.358 259.365 C 373.421 258.819 373.468 258.269 373.499 257.716 C 373.53 257.161 373.545 256.605 373.545 256.045 C 373.543 255.489 373.527 254.936 373.499 254.389 C 373.47 253.842 373.423 253.302 373.357 252.768 C 373.295 252.232 373.217 251.705 373.124 251.187 C 373.031 250.669 372.921 250.16 372.798 249.661 C 372.678 249.178 372.544 248.707 372.398 248.251 C 372.254 247.796 372.097 247.354 371.923 246.927 C 371.75 246.5 371.565 246.087 371.372 245.691 C 371.174 245.298 370.965 244.918 370.743 244.551 C 370.522 244.186 370.293 243.842 370.054 243.521 C 369.823 243.207 369.576 242.906 369.313 242.619 C 369.063 242.345 368.798 242.088 368.518 241.848 C 368.253 241.616 367.972 241.405 367.677 241.212 C 367.386 241.02 367.081 240.851 366.765 240.705 C 366.463 240.565 366.15 240.451 365.829 240.362 C 365.196 240.187 364.537 240.121 363.883 240.169" fill="#e4e4e4" style=""/>
  <path id="bafb1f3d-b2ca-45c8-ab7e-ed03dda6d8fc-279" data-name="Path 5" d="M 241.225 243.158 C 245.703 250.539 256.56 250.346 260.771 242.811 C 262.273 240.118 262.593 236.931 261.651 233.999 L 305.265 145.173 L 284.388 132.627 L 246.721 226.978 C 246.577 227.033 246.437 227.09 246.296 227.151 C 246.157 227.213 246.018 227.276 245.879 227.342 C 245.742 227.408 245.604 227.479 245.467 227.551 C 245.331 227.624 245.196 227.701 245.061 227.782 C 239.719 230.979 238.001 237.861 241.225 243.158 Z" style="fill: rgb(255, 182, 182);"/>
  <path id="a23fb8c4-4f70-46f7-bb51-5893ecfd1d6a-280" data-name="Path 8" d="M 296.94 179.424 L 265.956 171.551 C 265.956 171.551 266.968 169.284 268.611 165.529 C 270.255 161.773 272.553 156.536 275.136 150.59 C 277.721 144.645 280.588 138.001 283.388 131.433 C 286.189 124.867 288.913 118.377 291.207 112.754 C 293.499 107.131 296.106 103.761 298.725 101.873 C 300.892 100.241 303.621 99.521 306.321 99.872 C 308.42 100.181 310.425 100.939 312.2 102.09 C 313.04 102.608 313.83 103.203 314.559 103.866 L 321.744 116.816 L 296.94 179.424 Z" fill="#ccc" style=""/>
  <path id="bf4ad07a-caea-45f0-95a0-f5e060234fe8-281" data-name="Ellipse 3 - Outline" d="M 48.974 172.389 C 48.224 172.445 47.477 172.541 46.738 172.678 C 45.995 172.818 45.258 172.996 44.533 173.214 C 43.797 173.437 43.076 173.7 42.37 173.999 C 41.646 174.306 40.939 174.651 40.252 175.03 C 39.58 175.406 38.923 175.812 38.281 176.253 C 37.64 176.694 37.016 177.167 36.412 177.672 C 35.808 178.177 35.221 178.715 34.652 179.286 C 34.085 179.857 33.536 180.459 33.008 181.092 C 32.482 181.727 31.982 182.384 31.511 183.063 C 31.039 183.742 30.596 184.442 30.183 185.162 C 29.773 185.884 29.39 186.624 29.032 187.386 C 28.676 188.146 28.352 188.924 28.061 189.722 C 27.756 190.547 27.492 191.381 27.263 192.225 C 27.034 193.068 26.844 193.917 26.692 194.775 C 26.538 195.633 26.424 196.495 26.347 197.364 C 26.271 198.232 26.233 199.105 26.233 199.981 C 26.233 200.856 26.271 201.721 26.347 202.575 C 26.424 203.429 26.538 204.268 26.692 205.096 C 26.844 205.922 27.034 206.735 27.263 207.532 C 27.492 208.331 27.756 209.112 28.057 209.876 C 28.352 210.614 28.676 211.328 29.031 212.019 C 29.38 212.702 29.764 213.368 30.182 214.012 C 30.591 214.645 31.035 215.256 31.511 215.843 C 31.979 216.427 32.481 216.985 33.008 217.517 C 33.529 218.04 34.078 218.535 34.652 218.998 C 35.215 219.453 35.803 219.875 36.412 220.264 C 37.617 221.032 38.905 221.661 40.254 222.137 C 41.636 222.627 43.072 222.951 44.531 223.102 C 45.264 223.176 46 223.208 46.736 223.198 C 47.484 223.188 48.231 223.135 48.973 223.041 C 49.721 222.946 50.463 222.812 51.197 222.635 C 51.932 222.459 52.659 222.242 53.371 221.988 C 54.09 221.73 54.796 221.435 55.486 221.104 C 56.186 220.767 56.872 220.395 57.535 219.988 C 58.181 219.589 58.81 219.16 59.424 218.702 C 60.036 218.245 60.629 217.757 61.204 217.24 C 61.778 216.722 62.333 216.175 62.867 215.601 C 63.401 215.027 63.917 214.423 64.41 213.792 C 64.907 213.161 65.373 212.512 65.812 211.844 C 66.251 211.177 66.661 210.49 67.043 209.786 C 67.426 209.083 67.778 208.362 68.104 207.625 C 68.431 206.89 68.727 206.137 68.995 205.371 C 69.272 204.577 69.515 203.775 69.723 202.968 C 69.931 202.16 70.104 201.346 70.244 200.526 C 70.382 199.708 70.487 198.883 70.558 198.055 C 70.627 197.226 70.662 196.394 70.662 195.558 C 70.662 194.723 70.625 193.898 70.558 193.083 C 70.488 192.269 70.384 191.465 70.244 190.673 C 70.106 189.882 69.932 189.105 69.723 188.337 C 69.513 187.57 69.272 186.817 68.995 186.079 C 68.725 185.364 68.429 184.671 68.104 183.999 C 67.775 183.33 67.421 182.681 67.038 182.05 C 66.281 180.805 65.399 179.638 64.41 178.567 C 63.923 178.041 63.41 177.539 62.872 177.065 C 62.341 176.599 61.786 176.163 61.207 175.756 C 60.636 175.355 60.041 174.983 59.427 174.647 C 58.813 174.31 58.183 174.008 57.535 173.741 C 56.198 173.19 54.8 172.796 53.371 172.57 C 52.652 172.456 51.926 172.384 51.199 172.356 C 50.457 172.325 49.714 172.337 48.974 172.391" fill="#e4e4e4" style=""/>
  <path id="b68b3c2d-1cd9-4a2b-b264-66241f72f014-282" data-name="Ellipse 3 - Outline" d="M 48.974 262.999 C 48.224 263.053 47.477 263.149 46.738 263.287 C 45.995 263.426 45.258 263.604 44.533 263.823 C 43.797 264.046 43.076 264.308 42.37 264.608 C 41.646 264.914 40.939 265.259 40.252 265.639 C 39.58 266.015 38.923 266.422 38.281 266.861 C 37.64 267.302 37.016 267.775 36.412 268.281 C 35.808 268.786 35.221 269.323 34.652 269.894 C 34.085 270.466 33.536 271.067 33.008 271.702 C 32.482 272.335 31.982 272.992 31.511 273.671 C 31.039 274.35 30.596 275.05 30.183 275.77 C 29.773 276.492 29.39 277.233 29.032 277.994 C 28.676 278.754 28.352 279.532 28.061 280.33 C 27.756 281.155 27.492 281.989 27.263 282.833 C 27.034 283.676 26.844 284.525 26.692 285.383 C 26.538 286.241 26.424 287.103 26.347 287.972 C 26.271 288.841 26.233 289.713 26.233 290.589 C 26.233 291.465 26.271 292.33 26.347 293.183 C 26.424 294.037 26.538 294.876 26.692 295.704 C 26.844 296.53 27.034 297.343 27.263 298.14 C 27.492 298.939 27.756 299.72 28.057 300.484 C 28.352 301.222 28.676 301.937 29.031 302.627 C 29.38 303.311 29.764 303.976 30.182 304.62 C 30.591 305.253 31.035 305.865 31.511 306.452 C 31.979 307.036 32.481 307.593 33.008 308.125 C 33.529 308.648 34.078 309.143 34.652 309.606 C 35.215 310.061 35.803 310.484 36.412 310.872 C 37.617 311.641 38.905 312.269 40.254 312.746 C 41.636 313.235 43.072 313.56 44.531 313.71 C 45.264 313.786 46 313.817 46.736 313.806 C 47.484 313.796 48.231 313.744 48.973 313.649 C 49.721 313.554 50.463 313.42 51.197 313.243 C 51.932 313.068 52.659 312.851 53.371 312.596 C 54.09 312.34 54.796 312.043 55.486 311.712 C 56.186 311.375 56.872 311.003 57.535 310.596 C 58.181 310.198 58.81 309.768 59.424 309.311 C 60.036 308.853 60.629 308.365 61.204 307.848 C 61.778 307.33 62.333 306.783 62.867 306.21 C 63.401 305.635 63.917 305.031 64.41 304.4 C 64.907 303.77 65.373 303.121 65.812 302.453 C 66.251 301.785 66.661 301.098 67.043 300.395 C 67.426 299.691 67.778 298.97 68.104 298.234 C 68.431 297.498 68.727 296.747 68.995 295.979 C 69.272 295.185 69.515 294.383 69.723 293.577 C 69.931 292.768 70.104 291.954 70.244 291.135 C 70.382 290.316 70.487 289.491 70.558 288.664 C 70.627 287.835 70.662 287.002 70.662 286.167 C 70.662 285.331 70.625 284.506 70.558 283.691 C 70.488 282.877 70.384 282.073 70.244 281.282 C 70.106 280.491 69.932 279.713 69.723 278.946 C 69.513 278.179 69.272 277.425 68.995 276.687 C 68.725 275.972 68.429 275.279 68.104 274.607 C 67.775 273.938 67.421 273.289 67.038 272.658 C 66.281 271.414 65.399 270.247 64.41 269.176 C 63.923 268.65 63.41 268.147 62.872 267.674 C 62.341 267.208 61.786 266.772 61.207 266.365 C 60.636 265.963 60.041 265.592 59.427 265.255 C 58.813 264.919 58.183 264.616 57.535 264.349 C 56.198 263.798 54.8 263.405 53.371 263.178 C 52.652 263.064 51.926 262.992 51.199 262.964 C 50.457 262.934 49.714 262.946 48.974 263" fill="#e4e4e4" style=""/>
  <path id="a5644fa4-417a-45bc-a470-f5aa82f96b47-283" data-name="Ellipse 2 - Outline" d="M 48.979 74.231 C 48.232 74.214 47.486 74.238 46.741 74.305 C 46.001 74.371 45.266 74.478 44.538 74.628 C 43.806 74.781 43.083 74.972 42.373 75.206 C 41.653 75.443 40.946 75.719 40.255 76.034 C 39.582 76.344 38.923 76.686 38.286 77.064 C 37.64 77.444 37.016 77.858 36.415 78.302 C 35.805 78.754 35.216 79.237 34.655 79.748 C 34.085 80.268 33.534 80.819 33.008 81.402 C 32.482 81.985 31.982 82.593 31.511 83.227 C 31.039 83.862 30.596 84.519 30.183 85.199 C 29.771 85.889 29.387 86.596 29.031 87.319 C 28.673 88.043 28.349 88.789 28.057 89.561 C 27.756 90.356 27.492 91.164 27.263 91.986 C 27.034 92.807 26.844 93.638 26.692 94.48 C 26.538 95.326 26.424 96.178 26.347 97.037 C 26.271 97.897 26.233 98.764 26.233 99.64 C 26.233 100.514 26.271 101.381 26.347 102.242 C 26.424 103.102 26.538 103.955 26.692 104.796 C 26.844 105.638 27.034 106.468 27.263 107.289 C 27.492 108.107 27.756 108.913 28.057 109.708 C 28.352 110.474 28.676 111.219 29.031 111.943 C 29.387 112.665 29.773 113.366 30.185 114.043 C 30.598 114.723 31.042 115.377 31.514 116.008 C 31.985 116.64 32.484 117.245 33.012 117.824 C 33.539 118.401 34.088 118.948 34.655 119.463 C 35.213 119.971 35.798 120.453 36.407 120.902 C 37.008 121.343 37.632 121.752 38.276 122.129 C 38.914 122.502 39.572 122.842 40.247 123.145 C 40.937 123.455 41.644 123.728 42.365 123.959 C 43.782 124.414 45.248 124.706 46.733 124.828 C 48.221 124.949 49.716 124.905 51.194 124.693 C 51.926 124.589 52.651 124.442 53.368 124.256 C 54.084 124.067 54.789 123.841 55.481 123.575 C 56.181 123.306 56.865 122.999 57.53 122.656 C 58.181 122.322 58.811 121.955 59.424 121.556 C 60.038 121.156 60.633 120.724 61.204 120.264 C 61.778 119.802 62.333 119.309 62.867 118.785 C 63.401 118.263 63.917 117.708 64.41 117.126 C 64.907 116.543 65.373 115.938 65.812 115.311 C 66.251 114.686 66.661 114.039 67.043 113.371 C 67.426 112.705 67.78 112.018 68.104 111.313 C 68.429 110.61 68.725 109.887 68.995 109.149 C 69.272 108.381 69.515 107.603 69.722 106.815 C 69.931 106.028 70.104 105.231 70.244 104.425 C 70.382 103.616 70.487 102.8 70.556 101.978 C 70.627 101.156 70.662 100.329 70.662 99.493 C 70.662 98.658 70.625 97.829 70.556 97.007 C 70.488 96.185 70.384 95.373 70.244 94.567 C 70.106 93.763 69.932 92.967 69.722 92.179 C 69.513 91.391 69.272 90.616 68.995 89.851 C 68.725 89.111 68.429 88.389 68.104 87.687 C 67.78 86.983 67.424 86.299 67.038 85.632 C 66.656 84.972 66.246 84.329 65.807 83.705 C 65.368 83.081 64.903 82.478 64.41 81.899 C 63.92 81.322 63.406 80.774 62.872 80.253 C 62.336 79.732 61.781 79.243 61.207 78.785 C 60.638 78.327 60.043 77.898 59.427 77.501 C 58.816 77.106 58.186 76.743 57.535 76.412 C 56.87 76.074 56.186 75.772 55.486 75.506 C 54.794 75.245 54.089 75.022 53.371 74.839 C 52.656 74.657 51.931 74.515 51.199 74.415 C 50.46 74.314 49.718 74.255 48.974 74.237 M 48.974 71.826 C 52.24 71.914 55.443 72.736 58.344 74.23 C 61.225 75.723 63.779 77.769 65.857 80.247 C 68.03 82.832 69.723 85.776 70.856 88.948 C 73.28 95.771 73.28 103.213 70.856 110.036 C 69.722 113.216 68.03 116.173 65.857 118.768 C 63.777 121.259 61.225 123.318 58.342 124.831 C 55.446 126.341 52.243 127.184 48.973 127.295 C 45.682 127.402 42.411 126.755 39.412 125.405 C 36.386 124.031 33.677 122.052 31.459 119.592 C 29.104 116.987 27.258 113.967 26.021 110.691 C 23.343 103.557 23.343 95.706 26.021 88.572 C 27.259 85.285 29.104 82.256 31.459 79.637 C 33.677 77.162 36.384 75.167 39.412 73.772 C 42.408 72.403 45.682 71.737 48.978 71.822 L 48.974 71.826 Z" style="fill: rgb(202, 138, 4);"/>
  <path id="aeea3032-7d6f-43a2-9023-7da5e46a69d9-284" data-name="Path 1" d="M 48.976 106.378 L 41.317 90.56 L 43.135 89.386 L 49.444 102.381 L 75.932 71.515 L 77.537 73.209 L 48.976 106.378 Z" style="fill: rgb(202, 138, 4);"/>
  <g id="b65364ff-7d92-487e-8061-939b37583c0d" data-name="Group 1" transform="matrix(0.807778, 0, 0, 0.800764, 24.012396, 15.031745)" style="">
    <path id="efb13e16-1633-4e88-9f48-a8cd4f1f0a11-285" data-name="Path 1-2" d="M696.403,662.81072l-23.4731-.09149,7.56917,61.3346,15.90393.07945Z" transform="translate(-320.41275 -158.75)" style="fill: rgb(255, 182, 182);"/>
    <path id="b5b13dc0-906f-47cb-af24-0252d232cfd5-286" data-name="Path 2" d="M700.45839,739.56654l-51.2532-.27084v-.64762a20.102,20.102,0,0,1,.38279-3.9182,19.5981,19.5981,0,0,1,2.9552-7.12017,20.12424,20.12424,0,0,1,5.54326-5.51558,19.60926,19.60926,0,0,1,7.13462-2.92391,20.10992,20.10992,0,0,1,3.92061-.36112h0l31.31672.15408Z" transform="translate(-320.41275 -158.75)" fill="#2f2e41"/>
  </g>
  <g id="b7f9c824-5877-4162-b4d5-ccd00fd098dd" data-name="Group 2" transform="matrix(0.807778, 0, 0, 0.800764, 24.012396, 15.031745)" style="">
    <path id="a1d436e5-b88b-4a37-a10d-47f639496f81-287" data-name="Path 3" d="M621.24452,662.51941l-23.40569-.09149,7.5451,61.25154,15.86059.07945Z" transform="translate(-320.41275 -158.75)" style="fill: rgb(255, 182, 182);"/>
    <path id="aa34d611-dd92-4168-ad92-5f109db8b699-288" data-name="Path 4" d="M625.28911,739.16809l-51.11839-.26843V738.252a20.12047,20.12047,0,0,1,.3828-3.91218,19.59207,19.59207,0,0,1,2.94677-7.11054,20.06641,20.06641,0,0,1,5.53-5.51076,19.53926,19.53926,0,0,1,7.11656-2.91669,20.03214,20.03214,0,0,1,3.911-.36112h0l31.23125.15287Z" transform="translate(-320.41275 -158.75)" fill="#2f2e41"/>
  </g>
  <path id="a2716e79-bed1-4374-9a2b-fced6059ca2b-289" data-name="Path 6" d="M 266.214 217.687 L 234.421 335.307 L 246.058 448.055 L 271.826 448.76 L 266.216 346.955 L 298.361 296.151 L 305.333 449.453 L 328.706 447.814 L 341.708 316.005 C 346.125 305.713 349.364 294.963 351.364 283.957 C 352.937 275.315 353.701 266.551 353.648 257.77 C 353.621 251.861 353.164 245.96 352.277 240.116 C 351.96 237.937 351.532 235.776 350.993 233.641 L 341.513 224.114 L 266.214 217.687 Z" fill="#2f2e41" style=""/>
  <path d="M 308.339 237.361 C 302.992 237.361 297.975 237.19 293.426 236.855 C 288.778 236.538 284.156 235.936 279.585 235.048 C 275.693 234.328 271.902 233.145 268.295 231.525 C 265.394 230.282 262.869 228.307 260.974 225.797 L 260.757 225.483 L 269.447 169.42 L 278.818 106.383 C 280.096 97.747 287.7 91.433 296.502 91.703 L 325.85 92.593 C 335.125 92.875 342.33 100.702 341.765 109.883 L 337.911 172.575 L 352.124 234.414 L 351.117 234.552 C 350.712 234.605 349.153 234.809 346.709 235.083 C 343.516 235.438 340.255 235.759 337.018 236.035 C 332.437 236.428 327.956 236.735 323.697 236.951 C 318.296 237.223 313.12 237.355 308.339 237.361 Z" style="" fill="#ccc"/>
  <path id="ad5d6a80-02ce-46d1-bab9-e92b7dd0c553-290" data-name="Path 9" d="M 292.052 80.562 C 292.044 80.562 292.037 80.562 292.029 80.562 C 289.439 80.561 287.341 78.478 287.343 75.912 L 287.343 49.971 C 287.338 45.326 288.277 40.724 290.102 36.443 C 293.674 28.09 300.364 21.425 308.771 17.841 C 331.838 8.032 357.512 24.78 357.552 49.663 L 357.552 75.64 C 357.552 76.265 357.426 76.885 357.181 77.461 C 356.699 78.584 355.797 79.479 354.664 79.958 C 354.085 80.205 353.46 80.332 352.829 80.334 L 292.049 80.562 L 292.052 80.562 Z" fill="#2f2e41" style=""/>
  <path id="b726e025-86c8-4394-a2c8-021cc2286f1b-291" data-name="Ellipse 1" d="M 338.299 41.076 C 347.833 58.34 334.94 79.364 315.09 78.918 C 312.848 78.867 310.625 78.527 308.473 77.907 C 301.924 76.042 296.402 71.657 293.138 65.729 C 283.617 48.457 296.529 27.445 316.379 27.907 C 318.6 27.959 320.806 28.295 322.944 28.908 C 329.497 30.766 335.027 35.149 338.299 41.078 L 338.299 41.076 Z" style="fill: rgb(255, 182, 182);"/>
  <path id="f57fd208-21ef-4a3c-a796-e350b3c4ef74-292" data-name="Path 10" d="M 279.044 52.084 C 279.04 48.407 279.783 44.768 281.227 41.384 C 284.052 34.777 289.341 29.508 295.988 26.674 C 299.4 25.225 303.072 24.471 306.783 24.458 L 312.021 24.431 C 312.079 24.43 312.138 24.43 312.196 24.43 C 327.448 24.439 339.803 36.704 339.795 51.823 L 339.795 52.343 L 328.716 52.387 L 324.937 41.924 L 324.182 52.407 L 318.46 52.432 L 316.554 47.154 L 316.172 52.439 L 279.048 52.604 L 279.044 52.084 Z" fill="#2f2e41" style=""/>
  <path id="a4aedf3a-b803-468c-96e6-3db664c8a6b9-293" data-name="Path 11" d="M 234.441 106.65 C 232.737 107.064 231.143 107.838 229.768 108.921 C 228.695 109.763 227.776 110.784 227.054 111.937 C 225.631 114.221 225.004 116.905 225.27 119.573 C 225.404 120.924 225.773 122.239 226.361 123.464 C 229.433 129.933 237.521 132.284 243.632 128.484 C 243.739 128.417 243.843 128.348 243.947 128.278 C 244.051 128.208 244.154 128.137 244.255 128.064 C 244.356 127.991 244.456 127.917 244.553 127.841 C 244.65 127.767 244.747 127.69 244.843 127.613 L 305.978 149.181 C 309.843 150.544 314.15 149.211 316.544 145.91 L 331.039 126.016 L 313.515 114.32 L 304.32 124.675 L 248.37 113.643 C 248.31 113.498 248.246 113.355 248.182 113.213 C 248.115 113.071 248.047 112.928 247.976 112.789 C 247.903 112.646 247.829 112.508 247.753 112.368 C 247.676 112.229 247.595 112.091 247.51 111.954 C 244.772 107.567 239.496 105.427 234.441 106.65 Z" style="fill: rgb(255, 182, 182);"/>
  <path id="f92404ba-5ab9-4b2c-8e33-361dae08dca6-294" data-name="Path 12" d="M 305.306 118.144 C 307.136 115.882 309.691 112.944 312.29 110.031 C 314.887 107.116 317.524 104.229 319.512 102.069 C 321.5 99.909 322.839 98.477 322.839 98.477 C 328.958 89.308 342.794 90.141 347.745 99.978 C 349.153 102.771 349.597 105.945 349.01 109.012 C 348.656 110.878 347.926 112.654 346.862 114.232 C 346.862 114.232 344.867 116.819 341.856 120.682 C 338.847 124.543 334.817 129.683 330.755 134.794 C 326.692 139.905 322.59 144.99 319.427 148.743 C 316.261 152.495 314.037 154.921 313.722 154.713 L 302.688 122.198 C 302.375 121.991 303.478 120.407 305.306 118.144 Z" style="" fill="#ccc"/>
  <path id="ed7e3964-87ca-4ccc-8578-c3f29353ddd2-295" data-name="Path 13" d="M 311.854 79.744 C 311.681 80.582 311.749 81.453 312.05 82.256 C 312.2 82.667 312.41 83.054 312.668 83.408 C 312.891 83.709 313.148 83.983 313.434 84.225 C 314.285 84.937 315.363 85.325 316.477 85.32 C 316.546 85.32 316.616 85.317 316.684 85.314 C 316.753 85.312 316.822 85.306 316.892 85.3 C 316.962 85.293 317.033 85.287 317.101 85.277 C 317.17 85.268 317.239 85.257 317.311 85.244 L 321.242 84.535 L 326.659 73.065 L 326.659 83.572 L 344.536 80.38 L 344.536 35.795 L 314.564 35.937 L 315.306 36.79 C 317.766 39.653 319.38 43.133 319.974 46.846 C 320.555 50.608 320.482 54.441 319.758 58.177 C 319.054 61.959 317.985 65.664 316.566 69.243 C 315.326 72.413 313.902 75.51 312.303 78.518 C 312.097 78.905 311.946 79.317 311.854 79.744 Z" fill="#2f2e41" style=""/>
  <path d="M 104.26 481.477 L 474.73 481.477 C 475.478 481.477 475.945 480.674 475.57 480.031 C 475.397 479.733 475.076 479.549 474.73 479.549 L 104.26 479.549 C 103.51 479.549 103.044 480.353 103.418 480.994 C 103.591 481.293 103.912 481.477 104.26 481.477 Z" fill="#cacaca" style=""/>
</svg>