<svg xmlns="http://www.w3.org/2000/svg" viewBox="0 0 267 70.47" xmlns:dc="http://purl.org/dc/elements/1.1/" xmlns:rdf="http://www.w3.org/1999/02/22-rdf-syntax-ns#" xmlns:cc="http://creativecommons.org/ns#" version="1.1"><path d="M156.36,32.62c-1.65,1.3-3.71,1.43-4.59.29s-.26-3.12,1.39-4.43,3.71-1.43,4.59-.29S158,31.32,156.36,32.62Zm-30.2,5.18a4.23,4.23,0,0,0-2.69-.65,11.3,11.3,0,0,0-4.62,1.52C112.36,42,104.6,49.46,100.91,55.12c-1.68,2.57-1.68,3.72-1.19,4.14s1.77.17,3.67-.92C109.16,55,119.32,44.93,126.16,37.8ZM93,37.77a3.57,3.57,0,0,0-2.51-.57,12.48,12.48,0,0,0-4.93,1.35C79,41.74,70.42,49.5,66.59,55.06c-1.75,2.53-1.76,3.79-1.25,4.3s1.74.07,3.67-1C74.85,55.23,85.93,44.73,93,37.77ZM155.6,51.55c12.09-8,22.57-18.32,27.26-24.9,2.55-3.56.76-5.19-2.94-2.85C170.16,30,158,43.12,155.6,51.55ZM230,37.77a3.65,3.65,0,0,0-2.52-.57,12.39,12.39,0,0,0-4.92,1.35c-6.57,3.19-15.1,11-18.94,16.51-1.74,2.53-1.76,3.79-1.25,4.3s1.75.07,3.67-1C211.84,55.23,222.92,44.73,230,37.77ZM85.24,36.1c5.49-1.54,11.37-1.45,15.07.91-.28.2-.86.56-1.3.92-7.54,6.19-15.27,14.69-17.28,18.18-1.25,2.18-.52,2.76-.4,2.88,2.15,2,10.56-3.39,21.58-13.57a41.63,41.63,0,0,1,15-9.3,18.59,18.59,0,0,1,6.57-1,18.37,18.37,0,0,1,4.32.64c3.61-3.48,10-9.33,14.69-13.72,2.29,0,4,0,6.29-.09a7.05,7.05,0,0,0-1.12.81C145.17,25.86,138,32.24,132,37.88c-7.32,6.9-13.79,13.83-16.09,17.88-.9,1.57-1.2,2.66-.48,3.24,1.71,1.38,9-2.39,19.84-12.41,4.39-4.66,9.55-9.52,11.42-11.18,2.21,0,4.12,0,6.47,0a17,17,0,0,0-2,1.49c-4.71,4.34-12.59,11.66-15.59,16-2.4,3.5-1.94,5.13-.89,5.9,2,1.46,9.19-.4,16.06-4.2-.19-2.72.83-6.33,2.86-9.85,3.49-6,11.11-14.67,23.71-21.86,3.74-2.14,6.93-2.84,8.32-1.51s1,4-1.19,7.24C178.27,37.93,167,46.4,155,54.16c-.72,4.67,6.25,8.42,20.69.52-.13-2.8.8-6.27,3.18-10,4.44-6.95,12.71-15.54,23.9-21.9,3.75-2.12,6.81-2.93,8.32-1.45,1.36,1.32,1,4-1.15,7.25-5.86,8.8-14.76,15.76-29.76,25.8a4,4,0,0,0,.71,3.68c1.88,2,6.6.07,8.9-.88,6.82-2.82,9-6,17.24-12.29,6.09-4.68,10.27-7.3,15.16-8.8a20.62,20.62,0,0,1,8.21-1A20.08,20.08,0,0,1,237.3,37c-.29.2-.87.56-1.3.92-7.54,6.19-15.25,14.56-17.26,18.12-.69,1.23-.87,2.32-.32,2.87,1.2,1.2,8.19-.94,20.76-13.12a48.38,48.38,0,0,1,4.69-4.19,38.26,38.26,0,0,1,13-6.89c4.73-1.36,9.45-1.22,10,2.34.71,4.25-4.24,8-9.11,9.71l-.16-1.85c3.62-2.41,6.77-6.27,5.33-8.31-.85-1.21-3.3-1-6.85.58-4,1.8-10.49,7.57-13.83,12.86-2.25,3.56-2.74,7.16-1,8.85s4.49,1.86,7.8,1.12A35,35,0,0,0,264,51.76l.42,1.76a33.21,33.21,0,0,1-15.06,8.31c-5.5,1.3-9.6.46-12-2-2-2-2.38-5.41-1.18-8.87-11.25,10.56-17.69,11.64-19.9,9.69-1.92-1.68-1.34-5.61.91-8.62a77.91,77.91,0,0,1-10.08,7.56c-4.83,2.82-7.49,1.72-8-1.38-.25-1.58.45-3.7,1.68-5.93-9.62,8.29-16.91,10-21.17,8.61a5.71,5.71,0,0,1-3.65-4.18c-12.56,6.67-22.86,6.25-25.08-.2-7.65,4.19-15,6.08-17.93,4.26-2.26-1.42-3.26-4.33-1-9-7.88,7.19-14.82,11.26-18.41,8.92-2.2-1.43-1.51-5.85.62-8.85a73.8,73.8,0,0,1-9.64,7.62c-4.77,3-7.61,1.85-8.06-1.26-.25-1.7.58-4,1.8-6.32-10.08,9.27-16.77,10.83-19,8.62-1.83-1.8-1.35-5.47.93-8.52A78.55,78.55,0,0,1,70.2,59.63c-4.84,2.82-7.5,1.72-8-1.38-.29-1.79.65-4.29,2.2-6.83-12.92,10.54-29,19.07-39.9,19C11,70.45,7.11,60.75,12,49.12a43.09,43.09,0,0,1,9-12.64C8.71,35.68,3,32.86.74,28.6c-1.59-3-.9-8.29,4.9-13.13C14.44,8.11,31.15,3.41,44,2a56,56,0,0,1,6.8-.41L52,3.71c-11.36-1-32.28,4.35-41.16,12.37C4.69,21.6,5.12,26.68,8.13,29.85c2.15,2.27,5.81,4.09,15,4.52,1-.9,2-1.77,3-2.62C44.7,16.64,71.6,3.67,94.71.33c5.26-.75,10.15-.44,11.14,3.25,1.22,4.56-3.49,11.68-19.91,19.86C71.74,30.5,48.46,36.65,29,36.71A73.38,73.38,0,0,0,18.69,49.87c-6,10.11-3.24,18.45,6.36,18.48,13.39.05,31.58-12.23,43.57-22.8C68.62,45.55,76.58,38.51,85.24,36.1Zm-54-1.55c20.39-.64,37.8-6.66,56.26-15.61,11.63-5.64,16.9-11.46,16.14-14.61-.64-2.62-4.57-2.64-8.75-2-21.58,3.35-47,17.18-60.06,28.86C33.6,32.32,32.41,33.44,31.26,34.55ZM180.73,51.83c12.16-8.09,23.4-19,28-25.72,2.07-3,0-4.4-2.77-2.69C196.22,29.41,183.35,43.08,180.73,51.83Z"/></svg>