<?xml version="1.0" standalone="no"?>
<!DOCTYPE svg PUBLIC "-//W3C//DTD SVG 20010904//EN"
 "http://www.w3.org/TR/2001/REC-SVG-20010904/DTD/svg10.dtd">
<svg version="1.0" xmlns="http://www.w3.org/2000/svg"
 width="2301.000000pt" height="591.000000pt" viewBox="0 0 2301.000000 591.000000"
 preserveAspectRatio="xMidYMid meet">

<g transform="translate(0.000000,591.000000) scale(0.100000,-0.100000)"
fill="#000000" stroke="none">
<path d="M3376 5869 c-20 -17 -50 -56 -67 -87 -62 -110 -671 -1165 -979 -1697
-32 -55 -208 -359 -390 -675 -385 -666 -564 -975 -665 -1150 -40 -69 -148
-255 -240 -415 -92 -159 -201 -348 -242 -420 -42 -71 -101 -175 -133 -230
-226 -390 -321 -556 -385 -665 -177 -304 -262 -457 -267 -476 -13 -50 -28 -49
576 -49 l566 0 29 30 c16 17 82 122 147 235 135 236 452 788 611 1065 257 446
351 609 538 935 273 474 474 823 590 1025 188 325 368 641 413 720 25 44 54
93 65 108 l19 28 21 -33 c11 -18 90 -154 175 -303 85 -148 196 -342 247 -430
51 -88 136 -236 190 -330 54 -93 159 -276 233 -405 296 -515 352 -613 352
-621 0 -5 -357 -9 -805 -9 -689 0 -810 -2 -834 -15 -16 -8 -42 -38 -59 -67
-37 -65 -123 -213 -317 -548 -175 -302 -179 -310 -160 -336 13 -18 55 -19
1377 -22 l1363 -3 21 -22 c17 -18 277 -464 510 -877 23 -41 54 -86 69 -100
l27 -25 564 0 c491 0 566 2 574 15 18 28 37 -10 -192 385 -160 277 -363 629
-476 825 -108 187 -298 517 -477 825 -67 116 -174 300 -237 410 -64 110 -239
414 -390 675 -151 261 -368 637 -482 835 -114 198 -259 448 -321 555 -103 179
-158 273 -430 745 -51 88 -144 250 -207 360 -63 110 -129 215 -146 233 l-30
32 -156 0 -155 0 -35 -31z"/>
<path d="M19266 5878 c-13 -13 -124 -196 -246 -408 -122 -212 -248 -430 -280
-485 -32 -55 -217 -374 -411 -710 -749 -1297 -839 -1453 -1077 -1865 -308
-533 -517 -896 -592 -1025 -32 -55 -149 -257 -260 -450 -111 -192 -269 -466
-351 -607 -87 -151 -149 -267 -149 -283 0 -18 7 -28 26 -35 15 -6 236 -10 557
-10 490 0 535 1 565 18 35 18 36 19 429 707 85 149 163 279 174 290 19 20 35
20 1383 23 1538 3 1408 -5 1367 80 -13 26 -78 142 -145 257 -67 116 -174 300
-237 409 -81 141 -123 204 -144 217 -29 18 -70 19 -839 19 -752 0 -808 1 -802
17 6 14 179 316 669 1168 292 507 376 652 455 792 48 84 89 153 92 153 3 0 23
-30 45 -67 21 -38 165 -288 320 -558 155 -269 344 -598 420 -730 76 -132 222
-386 325 -565 102 -179 258 -449 345 -600 87 -151 217 -378 290 -505 73 -126
201 -349 285 -495 84 -146 192 -335 242 -421 49 -86 100 -167 114 -180 l26
-24 546 -3 c301 -1 557 0 569 3 57 14 57 13 -344 705 -28 47 -168 290 -312
540 -282 487 -431 746 -697 1205 -296 513 -413 714 -571 990 -86 149 -220 380
-298 515 -78 135 -168 290 -200 345 -32 55 -184 318 -338 585 -154 267 -320
555 -369 640 -50 85 -113 195 -140 243 -74 129 -70 127 -259 127 -150 0 -159
-1 -183 -22z"/>
<path d="M7740 5840 c-13 -8 -15 -342 -18 -2885 -1 -1582 2 -2891 6 -2908 l8
-32 2109 -3 c1160 -1 2112 1 2116 5 4 5 9 219 11 476 3 454 2 469 -16 483 -17
12 -245 14 -1553 14 l-1533 0 0 2411 c0 1642 -3 2416 -10 2430 -10 18 -27 19
-558 19 -327 0 -553 -4 -562 -10z"/>
<path d="M12714 5836 c-19 -14 -19 -55 -19 -2911 0 -2873 0 -2897 20 -2911 16
-12 102 -14 561 -12 298 2 546 7 551 11 4 5 9 481 11 1058 l2 1049 1038 0
c968 0 1039 1 1071 18 29 14 65 72 248 387 117 204 234 407 259 452 48 88 51
116 11 127 -12 3 -608 6 -1324 6 l-1303 0 0 880 0 880 1744 0 c1714 0 1744 0
1768 20 14 10 50 63 80 117 31 54 98 170 149 258 196 338 296 513 302 529 4
10 -1 24 -13 36 -20 20 -43 20 -2578 20 -2194 0 -2561 -2 -2578 -14z"/>
</g>
</svg>
